<svg width="1334" height="1306" viewBox="0 0 1334 1306" fill="none" xmlns="http://www.w3.org/2000/svg">
<path d="M285.867 350.023C281.275 333.422 293.763 306.677 327.329 322.488C326.785 314.343 360.121 282.861 386.487 332.179C387.293 318.956 415.668 320.542 424.248 341.151C433.598 334.054 462.816 356.337 430.955 366.651C390.267 379.824 294.459 394.867 272.364 368.816C250.27 342.765 285.867 350.023 285.867 350.023Z" fill="url(#paint0_linear)"/>
<path d="M948.683 367.343C946.495 359.434 952.445 346.693 968.436 354.226C968.176 350.346 984.058 335.347 996.619 358.843C997.003 352.543 1010.52 353.299 1014.61 363.117C1019.06 359.736 1032.98 370.351 1017.8 375.265C998.419 381.54 952.776 388.707 942.25 376.296C931.725 363.885 948.683 367.343 948.683 367.343Z" fill="url(#paint1_linear)"/>
<path d="M718.126 331.335C642.677 320.535 571.244 339.187 512.585 374.11C458.329 406.412 414.996 452.63 389.63 502.492C378.833 523.712 339.185 635.667 385.686 748.04C444.198 889.439 627.691 966.951 773.686 905.026C809.687 889.753 846.606 866.872 878.658 835.244C929.933 784.651 968.717 713.701 971.117 630.995C975.47 480.893 858.204 351.384 718.126 331.335Z" fill="url(#paint2_linear)"/>
<path d="M718.126 331.335C642.677 320.535 571.244 339.187 512.585 374.11C458.329 406.412 414.996 452.63 389.63 502.492C378.833 523.712 339.185 635.667 385.686 748.04C444.198 889.439 627.691 966.951 773.686 905.026C809.687 889.753 846.606 866.872 878.658 835.244C929.933 784.651 968.717 713.701 971.117 630.995C975.47 480.893 858.204 351.384 718.126 331.335Z" fill="url(#paint3_linear)"/>
<path d="M561.061 350.046C563.01 349.84 564.967 349.618 566.925 349.373C591.402 346.314 596.801 361.166 611.024 363.299C624.589 365.333 635.601 368.014 637.795 364.063C639.763 360.52 632.327 355.796 633.969 351.061C636.874 342.685 665.881 340.896 671.45 351.061C674.69 356.977 667.799 362.935 671.45 369.418C676.098 377.674 689.556 371.199 688.026 383.436C686.497 395.674 667.242 399.643 656.93 404.682C648.149 408.972 651.89 407.09 644.36 419.528C636.83 431.967 603.995 444.169 588.842 452.79C571.169 462.845 559.382 462.379 559.011 467.322C558.633 472.362 570.325 480.227 581.958 479.561C596.553 478.724 597.695 465.217 617.906 456.614C630.152 451.402 631.915 455.431 652.326 448.2C669.194 442.226 673.666 437.463 676.038 433.667C680.539 426.467 687.031 421.334 690.135 412.422C694.886 398.78 705.786 386.268 718.185 387.773C731.686 389.413 725.088 407.875 743.348 415.309C757.887 421.231 763.443 411.487 780.061 416.84C783.368 417.904 785.921 419.183 788.056 420.642C801.401 429.765 809.448 438.617 814.481 444.375C831.514 463.863 843.232 456.12 855.02 471.146C869.991 490.234 875.409 520.481 852.726 540.752C830.043 561.022 803.6 529.039 787.069 559.368C770.537 589.696 789.991 592.39 793.064 614.181C795.936 634.534 799.846 642.235 790.007 668.112C780.169 693.99 788.963 720.37 789.622 744.977C790.277 769.395 804.408 774.656 799.948 790.869C795.779 806.021 778.948 817.758 763.234 819.553C738.7 822.357 718.398 800.759 705.867 787.429C691.267 771.897 693.539 766.566 679.478 755.304C660.517 740.116 651.648 746.017 640.47 733.504C624.368 715.48 637.301 697.114 622.112 683.022C610.336 672.094 601.239 681.912 575.072 669.254C561.235 662.56 562.4 659.147 541.8 647.455C521.997 636.214 512.523 644.013 510.611 630.245C508.699 616.477 563.561 625.953 565.893 614.182C566.985 608.673 557.342 600.414 547.537 598.119C533.498 594.834 528.498 605.959 509.675 606.15C505.139 606.197 489.845 605.709 477.549 595.824C467.526 587.765 466.817 579.347 460.339 578.615C430.284 581.947 440.355 614.662 435.099 626.802C430.649 637.078 425.831 635.876 422.478 645.16C418.58 655.953 421.84 666.579 424.773 676.138C430.665 695.338 439.225 701.039 436.246 705.968C432.672 711.885 415.104 712.352 406.415 703.673C395.934 693.206 406.074 677.124 396.089 662.368C390.499 654.107 379.807 646.222 369.7 647.454C368.049 647.654 365.219 648.443 363.842 649.043C363.503 644.642 363.329 640.21 363.118 635.743C356.414 494.803 447.342 391.898 561.061 350.046Z" fill="url(#paint4_linear)"/>
<path fill-rule="evenodd" clip-rule="evenodd" d="M1179.48 619.032L1183.44 619.63C1183.68 617.994 1183.81 616.351 1183.81 614.701C1183.81 613.05 1183.68 611.407 1183.44 609.772L1179.48 610.37L1175.53 610.968C1175.71 612.212 1175.81 613.455 1175.81 614.701C1175.81 615.947 1175.71 617.19 1175.53 618.434L1179.48 619.032ZM1176.97 601.963L1180.63 600.334C1179.35 597.47 1177.69 594.634 1175.67 591.83L1172.43 594.167L1169.18 596.504C1170.92 598.916 1172.29 601.281 1173.32 603.592L1176.97 601.963ZM1166.42 587.065L1169.29 584.275C1167.09 582.019 1164.65 579.786 1161.99 577.578L1159.44 580.658L1156.89 583.739C1159.36 585.784 1161.58 587.824 1163.55 589.855L1166.42 587.065ZM1151.82 574.871L1154.12 571.596C1151.52 569.776 1148.76 567.975 1145.85 566.194L1143.76 569.607L1141.68 573.019C1144.46 574.72 1147.07 576.43 1149.52 578.147L1151.82 574.871ZM1135.39 564.774L1137.3 561.262C1134.49 559.729 1131.56 558.212 1128.51 556.713L1126.74 560.301L1124.98 563.889C1127.93 565.343 1130.76 566.81 1133.47 568.287L1135.39 564.774ZM1110.42 548.551C1113.55 549.846 1116.58 551.156 1119.52 552.48L1117.88 556.128L1116.24 559.775C1113.37 558.485 1110.41 557.207 1107.36 555.941L1108.89 552.246L1110.42 548.551ZM1099.86 548.636L1101.3 544.903C1098.27 543.738 1095.17 542.586 1092 541.447L1090.65 545.211L1089.3 548.976C1092.41 550.095 1095.45 551.226 1098.42 552.368L1099.86 548.636ZM1081.34 541.977L1082.62 538.186C1079.56 537.158 1076.45 536.142 1073.27 535.138L1072.07 538.952L1070.86 542.766C1073.99 543.756 1077.06 544.757 1080.07 545.768L1081.34 541.977ZM1062.62 536.052L1063.76 532.218C1060.66 531.293 1057.5 530.379 1054.3 529.476L1053.21 533.326L1052.13 537.176C1055.29 538.069 1058.41 538.972 1061.48 539.885L1062.62 536.052ZM1043.72 530.726L1044.75 526.861C1041.6 526.019 1038.39 525.188 1035.15 524.368L1034.17 528.246L1033.19 532.124C1036.4 532.936 1039.57 533.758 1042.69 534.591L1043.72 530.726ZM1024.65 525.901L1025.58 522.011C1022.39 521.245 1019.16 520.489 1015.89 519.744L1015 523.644L1014.11 527.543C1017.35 528.282 1020.55 529.032 1023.71 529.79L1024.65 525.901ZM1005.45 521.519L1006.29 517.61C1003.08 516.912 999.828 516.224 996.543 515.546L995.734 519.464L994.926 523.381C998.185 524.054 1001.41 524.736 1004.6 525.428L1005.45 521.519ZM986.145 517.532L986.916 513.607C983.685 512.972 980.423 512.347 977.131 511.73L976.395 515.662L975.659 519.594C978.928 520.206 982.167 520.827 985.373 521.457L986.145 517.532ZM357.605 515.662L356.869 511.73C353.577 512.347 350.315 512.972 347.084 513.607L347.856 517.532L348.627 521.457C351.834 520.827 355.072 520.206 358.341 519.594L357.605 515.662ZM338.266 519.464L337.457 515.546C334.172 516.224 330.922 516.912 327.706 517.61L328.554 521.519L329.402 525.428C332.591 524.736 335.815 524.054 339.074 523.381L338.266 519.464ZM319.001 523.644L318.111 519.744C314.841 520.489 311.61 521.245 308.418 522.011L309.352 525.901L310.285 529.79C313.447 529.032 316.649 528.282 319.89 527.543L319.001 523.644ZM299.831 528.246L298.85 524.368C295.605 525.188 292.404 526.019 289.248 526.861L290.278 530.726L291.309 534.591C294.431 533.758 297.598 532.936 300.811 532.124L299.831 528.246ZM280.79 533.326L279.705 529.476C276.499 530.379 273.343 531.293 270.239 532.218L271.381 536.052L272.524 539.885C275.589 538.972 278.706 538.069 281.874 537.176L280.79 533.326ZM261.933 538.952L260.727 535.138C257.554 536.142 254.439 537.158 251.384 538.186L252.659 541.977L253.934 545.768C256.942 544.757 260.011 543.756 263.14 542.766L261.933 538.952ZM243.352 545.211L242 541.447C238.829 542.585 235.73 543.738 232.705 544.903L234.143 548.636L235.58 552.368C238.547 551.226 241.588 550.095 244.704 548.976L243.352 545.211ZM225.108 552.246L223.575 548.551C220.454 549.846 217.422 551.156 214.48 552.48L216.122 556.128L217.764 559.775C220.63 558.485 223.589 557.207 226.641 555.941L225.108 552.246ZM207.256 560.301L205.488 556.712C202.444 558.212 199.514 559.729 196.701 561.262L198.615 564.774L200.529 568.287C203.239 566.809 206.071 565.343 209.023 563.889L207.256 560.301ZM190.236 569.606L188.149 566.194C185.237 567.975 182.481 569.776 179.885 571.596L182.181 574.871L184.477 578.147C186.926 576.43 189.542 574.72 192.323 573.019L190.236 569.606ZM174.563 580.658L172.012 577.578C169.345 579.786 166.911 582.019 164.715 584.275L167.582 587.065L170.448 589.854C172.424 587.824 174.645 585.784 177.114 583.739L174.563 580.658ZM161.572 594.167L158.326 591.829C156.307 594.634 154.652 597.47 153.375 600.334L157.028 601.963L160.681 603.592C161.712 601.281 163.081 598.916 164.818 596.504L161.572 594.167ZM150.191 614.701C150.191 613.05 150.316 611.407 150.563 609.772L154.518 610.37L158.473 610.968C158.285 612.212 158.191 613.455 158.191 614.701C158.191 615.946 158.285 617.19 158.473 618.434L154.518 619.032L150.563 619.63C150.316 617.994 150.191 616.351 150.191 614.701ZM157.028 627.438L153.375 629.067C154.652 631.932 156.307 634.768 158.326 637.572L161.572 635.235L164.818 632.897C163.081 630.485 161.712 628.121 160.681 625.809L157.028 627.438ZM167.582 642.337L164.715 645.126C166.911 647.383 169.345 649.616 172.011 651.824L174.563 648.743L177.114 645.663C174.645 643.617 172.424 641.577 170.448 639.547L167.582 642.337ZM182.181 654.53L179.885 657.806C182.481 659.625 185.237 661.426 188.149 663.207L190.236 659.795L192.323 656.383C189.542 654.681 186.926 652.971 184.477 651.255L182.181 654.53ZM198.615 664.627L196.701 668.139C199.513 669.672 202.443 671.189 205.488 672.689L207.255 669.101L209.023 665.513C206.071 664.058 203.239 662.592 200.529 661.115L198.615 664.627ZM216.122 673.274L214.48 676.921C217.421 678.245 220.454 679.555 223.575 680.85L225.108 677.156L226.641 673.461C223.589 672.195 220.629 670.916 217.764 669.626L216.122 673.274ZM234.142 680.766L232.705 684.498C235.73 685.664 238.829 686.816 242 687.955L243.352 684.19L244.704 680.426C241.588 679.307 238.546 678.176 235.58 677.033L234.142 680.766ZM252.659 687.425L251.384 691.216C254.438 692.243 257.553 693.259 260.727 694.263L261.933 690.449L263.14 686.636C260.01 685.646 256.942 684.645 253.934 683.633L252.659 687.425ZM271.381 693.35L270.239 697.183C273.343 698.108 276.499 699.023 279.705 699.926L280.789 696.076L281.874 692.225C278.706 691.333 275.589 690.43 272.524 689.516L271.381 693.35ZM290.278 698.676L289.248 702.541C292.404 703.382 295.605 704.213 298.85 705.034L299.83 701.156L300.811 697.277C297.598 696.466 294.431 695.643 291.309 694.811L290.278 698.676ZM309.352 703.501L308.418 707.39C311.61 708.156 314.841 708.912 318.111 709.658L319.001 705.758L319.89 701.858C316.649 701.119 313.447 700.37 310.285 699.611L309.352 703.501ZM328.554 707.883L327.706 711.792C330.922 712.49 334.172 713.177 337.457 713.855L338.266 709.938L339.074 706.02C335.815 705.348 332.591 704.666 329.402 703.974L328.554 707.883ZM347.856 711.869L347.084 715.794C350.315 716.429 353.577 717.055 356.869 717.671L357.605 713.739L358.341 709.808C355.072 709.196 351.834 708.575 348.627 707.945L347.856 711.869ZM367.236 715.498L366.534 719.436C369.774 720.014 373.042 720.582 376.337 721.141L377.006 717.198L377.675 713.254C374.402 712.699 371.156 712.134 367.938 711.561L367.236 715.498ZM395.852 724.296C392.559 723.789 389.29 723.274 386.046 722.75L386.684 718.801L387.322 714.852C390.546 715.373 393.795 715.885 397.068 716.389L396.46 720.342L395.852 724.296ZM406.189 721.802L405.61 725.76C408.855 726.234 412.123 726.701 415.413 727.158L415.964 723.196L416.515 719.234C413.244 718.78 409.995 718.316 406.768 717.844L406.189 721.802ZM425.747 724.522L425.223 728.488C428.467 728.916 431.731 729.336 435.016 729.748L435.513 725.779L436.011 721.81C432.744 721.401 429.497 720.983 426.27 720.557L425.747 724.522ZM445.351 726.979L444.88 730.951C448.121 731.336 451.381 731.713 454.659 732.081L455.106 728.106L455.553 724.131C452.291 723.765 449.048 723.39 445.823 723.007L445.351 726.979ZM464.97 729.184L464.548 733.162C467.795 733.506 471.06 733.843 474.341 734.171L474.74 730.191L475.138 726.211C471.872 725.884 468.624 725.549 465.392 725.206L464.97 729.184ZM484.579 731.147L484.204 735.13C487.473 735.438 490.759 735.737 494.059 736.029L494.412 732.045L494.764 728.06C491.478 727.77 488.208 727.471 484.954 727.165L484.579 731.147ZM504.226 732.885L503.896 736.871C507.187 737.144 510.492 737.408 513.812 737.664L514.119 733.676L514.427 729.688C511.122 729.433 507.832 729.17 504.556 728.898L504.226 732.885ZM523.91 734.405L523.624 738.395C526.908 738.63 530.205 738.858 533.516 739.078L533.781 735.087L534.046 731.096C530.75 730.877 527.466 730.65 524.196 730.415L523.91 734.405ZM543.627 735.715L543.383 739.707C546.658 739.907 549.946 740.1 553.245 740.284L553.469 736.291L553.692 732.297C550.406 732.113 547.133 731.921 543.871 731.722L543.627 735.715ZM563.376 736.819L563.173 740.814C566.439 740.98 569.717 741.138 573.006 741.289L573.189 737.293L573.372 733.297C570.096 733.147 566.832 732.99 563.579 732.824L563.376 736.819ZM583.068 737.72L582.905 741.717C586.191 741.851 589.489 741.977 592.796 742.096L592.939 738.098L593.082 734.101C589.788 733.983 586.504 733.857 583.231 733.724L583.068 737.72ZM602.787 738.427L602.663 742.425C605.962 742.527 609.27 742.621 612.588 742.708L612.692 738.709L612.796 734.71C609.492 734.624 606.196 734.53 602.91 734.429L602.787 738.427ZM622.534 738.942L622.449 742.941C625.738 743.011 629.035 743.073 632.341 743.128L632.407 739.128L632.473 735.129C629.18 735.074 625.895 735.012 622.619 734.943L622.534 738.942ZM642.306 739.268L642.259 743.268C645.538 743.306 648.826 743.337 652.121 743.36L652.149 739.36L652.177 735.36C648.895 735.337 645.62 735.306 642.353 735.268L642.306 739.268ZM662.038 739.407L662.029 743.407C663.684 743.411 665.341 743.412 667 743.412C668.659 743.412 670.316 743.411 671.971 743.407L671.962 739.407L671.952 735.407C670.303 735.411 668.653 735.412 667 735.412C665.347 735.412 663.697 735.411 662.048 735.407L662.038 739.407ZM681.851 739.36L681.879 743.36C685.174 743.337 688.462 743.306 691.741 743.268L691.694 739.268L691.647 735.268C688.38 735.306 685.105 735.337 681.823 735.36L681.851 739.36ZM701.593 739.128L701.659 743.128C704.965 743.073 708.262 743.011 711.551 742.941L711.466 738.942L711.381 734.943C708.105 735.012 704.82 735.074 701.527 735.129L701.593 739.128ZM721.308 738.709L721.412 742.708C724.73 742.621 728.038 742.527 731.337 742.425L731.213 738.427L731.09 734.429C727.804 734.53 724.508 734.624 721.203 734.71L721.308 738.709ZM741.061 738.098L741.204 742.096C744.511 741.977 747.808 741.851 751.095 741.717L750.932 737.72L750.769 733.724C747.496 733.857 744.212 733.983 740.918 734.101L741.061 738.098ZM760.811 737.293L760.994 741.289C764.283 741.138 767.56 740.98 770.827 740.814L770.624 736.819L770.421 732.825C767.168 732.99 763.904 733.147 760.628 733.297L760.811 737.293ZM780.531 736.291L780.755 740.284C784.054 740.1 787.342 739.907 790.617 739.707L790.373 735.715L790.129 731.722C786.867 731.922 783.594 732.113 780.308 732.297L780.531 736.291ZM800.219 735.087L800.484 739.078C803.795 738.858 807.092 738.631 810.377 738.395L810.09 734.405L809.804 730.415C806.534 730.65 803.25 730.877 799.954 731.096L800.219 735.087ZM819.881 733.676L820.188 737.664C823.508 737.408 826.813 737.144 830.104 736.871L829.774 732.885L829.444 728.898C826.168 729.17 822.878 729.433 819.573 729.688L819.881 733.676ZM839.589 732.045L839.941 736.029C843.242 735.737 846.527 735.438 849.796 735.13L849.421 731.147L849.046 727.165C845.792 727.471 842.522 727.77 839.236 728.06L839.589 732.045ZM859.261 730.191L859.659 734.171C862.94 733.843 866.205 733.506 869.452 733.162L869.03 729.184L868.608 725.206C865.376 725.549 862.128 725.884 858.862 726.211L859.261 730.191ZM878.894 728.106L879.341 732.081C882.619 731.713 885.879 731.336 889.12 730.951L888.649 726.979L888.177 723.007C884.953 723.39 881.709 723.765 878.447 724.131L878.894 728.106ZM898.487 725.779L898.984 729.748C902.269 729.336 905.533 728.916 908.777 728.488L908.253 724.522L907.73 720.557C904.503 720.983 901.257 721.401 897.989 721.81L898.487 725.779ZM918.036 723.196L918.587 727.158C921.877 726.701 925.145 726.234 928.39 725.76L927.811 721.802L927.232 717.844C924.006 718.316 920.757 718.779 917.485 719.234L918.036 723.196ZM937.54 720.342L938.148 724.296C941.441 723.789 944.711 723.274 947.955 722.75L947.316 718.801L946.678 714.852C943.455 715.373 940.206 715.885 936.932 716.389L937.54 720.342ZM956.994 717.198L957.664 721.141C960.958 720.582 964.226 720.014 967.466 719.436L966.764 715.498L966.062 711.561C962.844 712.134 959.599 712.699 956.325 713.254L956.994 717.198ZM976.395 713.739L977.131 717.671C980.423 717.055 983.685 716.429 986.916 715.794L986.145 711.869L985.373 707.945C982.167 708.575 978.928 709.196 975.659 709.808L976.395 713.739ZM995.734 709.938L996.543 713.855C999.828 713.177 1003.08 712.49 1006.29 711.792L1005.45 707.883L1004.6 703.974C1001.41 704.666 998.185 705.348 994.926 706.02L995.734 709.938ZM1015 705.758L1015.89 709.658C1019.16 708.912 1022.39 708.156 1025.58 707.39L1024.65 703.501L1023.71 699.611C1020.55 700.37 1017.35 701.119 1014.11 701.858L1015 705.758ZM1034.17 701.156L1035.15 705.034C1038.39 704.213 1041.6 703.382 1044.75 702.541L1043.72 698.676L1042.69 694.811C1039.57 695.643 1036.4 696.466 1033.19 697.277L1034.17 701.156ZM1053.21 696.076L1054.29 699.926C1057.5 699.023 1060.66 698.108 1063.76 697.183L1062.62 693.35L1061.48 689.516C1058.41 690.43 1055.29 691.333 1052.13 692.225L1053.21 696.076ZM1072.07 690.449L1073.27 694.263C1076.45 693.259 1079.56 692.243 1082.62 691.216L1081.34 687.425L1080.07 683.633C1077.06 684.645 1073.99 685.646 1070.86 686.636L1072.07 690.449ZM1090.65 684.19L1092 687.955C1095.17 686.816 1098.27 685.664 1101.3 684.499L1099.86 680.766L1098.42 677.033C1095.45 678.176 1092.41 679.307 1089.3 680.426L1090.65 684.19ZM1108.89 677.156L1110.42 680.85C1113.55 679.555 1116.58 678.245 1119.52 676.921L1117.88 673.274L1116.24 669.626C1113.37 670.916 1110.41 672.195 1107.36 673.461L1108.89 677.156ZM1126.74 669.101L1128.51 672.689C1131.56 671.189 1134.49 669.672 1137.3 668.14L1135.39 664.627L1133.47 661.115C1130.76 662.592 1127.93 664.058 1124.98 665.513L1126.74 669.101ZM1143.76 659.795L1145.85 663.207C1148.76 661.426 1151.52 659.626 1154.11 657.806L1151.82 654.53L1149.52 651.255C1147.07 652.972 1144.46 654.682 1141.68 656.383L1143.76 659.795ZM1159.44 648.743L1161.99 651.824C1164.65 649.616 1167.09 647.383 1169.28 645.126L1166.42 642.337L1163.55 639.547C1161.58 641.577 1159.36 643.617 1156.89 645.663L1159.44 648.743ZM1172.43 635.235L1175.67 637.572C1177.69 634.768 1179.35 631.932 1180.63 629.068L1176.97 627.438L1173.32 625.809C1172.29 628.121 1170.92 630.485 1169.18 632.897L1172.43 635.235Z" fill="black"/>
<path d="M961.763 978.029C961.763 986.314 872.42 1001.53 709.627 1001.53C546.834 1001.53 372.236 986.314 372.236 978.029C372.236 969.745 504.206 963.029 667 963.029C829.793 963.029 961.763 969.745 961.763 978.029Z" fill="#D0E0E7"/>
<defs>
<linearGradient id="paint0_linear" x1="445.455" y1="383.102" x2="388.586" y2="251.668" gradientUnits="userSpaceOnUse">
<stop stop-color="#130FFF"/>
<stop offset="1" stop-color="#1CA3FF"/>
</linearGradient>
<linearGradient id="paint1_linear" x1="1024.71" y1="383.102" x2="997.62" y2="320.487" gradientUnits="userSpaceOnUse">
<stop stop-color="#130FFF"/>
<stop offset="1" stop-color="#1CA3FF"/>
</linearGradient>
<linearGradient id="paint2_linear" x1="770.856" y1="328.827" x2="555.052" y2="940.643" gradientUnits="userSpaceOnUse">
<stop stop-color="#FDCED1"/>
<stop offset="1" stop-color="#F4BAE5"/>
</linearGradient>
<linearGradient id="paint3_linear" x1="971.235" y1="926.564" x2="373.021" y2="318.991" gradientUnits="userSpaceOnUse">
<stop stop-color="#130FFF"/>
<stop offset="1" stop-color="#1CA3FF"/>
</linearGradient>
<linearGradient id="paint4_linear" x1="362.77" y1="344.092" x2="838.662" y2="831.417" gradientUnits="userSpaceOnUse">
<stop stop-color="#C7FFDA"/>
<stop offset="1" stop-color="#39FFE0"/>
</linearGradient>
</defs>
</svg>
