<svg width="1334" height="1305" viewBox="0 0 1334 1305" fill="none" xmlns="http://www.w3.org/2000/svg">
<g clip-path="url(#clip0)">
<path opacity="0.03" d="M975.362 585.387C958.459 741.007 748.564 1141 616.187 1141C483.81 1141 523.613 835.892 523.613 547.633C523.613 259.375 503.098 40.4905 716.767 41.0009C930.436 41.5113 992.266 429.768 975.362 585.387Z" fill="url(#paint0_linear)"/>
<path opacity="0.03" d="M128.5 181.999C229 80.9993 363.999 145.5 397.999 308.499C431.998 471.499 732.501 792.001 657.5 958.5C582.499 1125 426.498 1097 261.498 873.999C96.4991 651 27.9999 282.999 128.5 181.999Z" fill="url(#paint1_linear)"/>
<path opacity="0.03" d="M1255.33 313.888C1148.3 207.565 990.613 259.298 940.697 414.962C890.781 570.626 527.479 857.741 601.018 1025.65C674.557 1193.57 853.54 1179.02 1056.29 975.669C1259.04 772.323 1362.36 420.211 1255.33 313.888Z" fill="url(#paint2_linear)"/>
<path d="M453.695 903.799C455.332 900.263 458.874 898 462.77 898H890.667C894.594 898 898.158 900.299 899.777 903.877L1087.61 1318.88C1090.6 1325.5 1085.76 1333 1078.5 1333H270.649C263.346 1333 258.506 1325.43 261.574 1318.8L453.695 903.799Z" fill="#E4F0F6"/>
<path d="M911.007 885.446C910.846 901.264 897.257 914.09 880.65 914.126L479.17 915C462.442 915.037 448.556 902.22 448.158 886.341L429.45 138.556C429.004 120.775 443.045 106.399 460.807 106.483L886.973 108.52C904.599 108.604 918.736 123.057 918.557 140.759L911.007 885.446Z" fill="url(#paint3_linear)"/>
<path d="M874.818 183.917C874.938 166.833 860.92 152.888 843.505 152.812L505.26 151.325C487.736 151.247 473.831 165.117 474.207 182.263L488.111 818.056C488.452 833.629 502.225 846.206 518.871 846.178L840.216 845.669C856.765 845.642 870.266 833.065 870.373 817.543L874.818 183.917Z" fill="url(#paint4_linear)"/>
<path d="M725.351 128.617C725.359 131.932 722.693 134.605 719.394 134.591L631.367 134.193C628.062 134.178 625.351 131.476 625.311 128.157C625.271 124.836 627.92 122.155 631.229 122.17L719.357 122.582C722.659 122.596 725.341 125.299 725.351 128.617Z" fill="url(#paint5_linear)"/>
<path opacity="0.6" d="M675.307 395.863C675.307 395.863 687.511 423.956 685.315 442.425C682.973 462.123 663.557 467.229 662.252 487.682C660.946 508.134 675.307 540.336 675.307 540.336" stroke="white" stroke-width="5"/>
<g opacity="0.8">
<path opacity="0.8" d="M788.918 571.299C787.561 569.631 785.432 568.939 783.175 568.986L577.602 573.299L572.41 556.802C571.687 554.505 569.526 553.033 567.083 553.098L538.857 553.839C535.832 553.919 533.381 556.022 533.381 559.044C533.381 562.066 535.832 564.047 538.857 563.976L562.977 563.406L606.621 702.867C607.357 705.216 609.561 706.83 612.058 706.863L756.35 708.801C759.735 708.847 762.484 706.721 762.484 703.52C762.484 700.318 759.737 698.125 756.35 698.089L616.269 696.577L605.026 660.367L758.962 660.601C762.114 660.606 764.892 658.543 765.775 655.682L790.071 577.126C790.705 575.078 790.277 572.969 788.918 571.299Z" fill="white"/>
<path opacity="0.8" d="M633.167 715.465C621.294 715.28 611.689 724.519 611.689 736.061C611.689 747.603 621.293 757.245 633.167 757.556C645.109 757.869 654.88 748.634 654.88 736.965C654.88 725.294 645.111 715.65 633.167 715.465ZM633.167 746.331C627.616 746.201 623.114 741.701 623.114 736.301C623.114 730.9 627.616 726.588 633.167 726.69C638.73 726.792 643.27 731.293 643.27 736.722C643.27 742.152 638.731 746.462 633.167 746.331Z" fill="white"/>
<path opacity="0.8" d="M729.35 716.96C716.89 716.767 706.811 726.228 706.811 738.05C706.811 749.874 716.89 759.756 729.35 760.084C741.886 760.414 752.145 750.957 752.145 738.999C752.145 727.041 741.886 717.154 729.35 716.96ZM729.35 748.585C723.526 748.448 718.8 743.835 718.8 738.302C718.8 732.767 723.526 728.352 729.35 728.459C735.192 728.568 739.957 733.18 739.957 738.744C739.957 744.307 735.192 748.72 729.35 748.585Z" fill="white"/>
</g>
<path opacity="0.7" fill-rule="evenodd" clip-rule="evenodd" d="M673.805 197.866C721.757 197.866 760.644 236.754 760.644 284.705C760.644 332.656 721.757 371.543 673.805 371.543C625.854 371.543 586.967 332.655 586.967 284.705C586.967 236.753 625.854 197.866 673.805 197.866ZM644.983 235.936C655.514 235.936 664.055 244.477 664.055 255.007C664.055 265.538 655.514 274.079 644.983 274.079C634.453 274.079 625.911 265.538 625.911 255.007C625.911 244.477 634.454 235.936 644.983 235.936ZM641.386 324.419L691.99 236.771C693.194 234.687 695.886 233.968 697.967 235.17L704.623 239.012C706.704 240.214 707.427 242.908 706.224 244.99L655.62 332.638C654.419 334.72 651.727 335.443 649.643 334.24L642.987 330.398C640.904 329.194 640.182 326.504 641.386 324.419ZM702.628 333.474C692.097 333.474 683.556 324.934 683.556 314.402C683.556 303.872 692.097 295.331 702.628 295.331C713.158 295.331 721.7 303.872 721.7 314.402C721.699 324.933 713.157 333.474 702.628 333.474ZM702.628 321.771C698.559 321.771 695.259 318.472 695.259 314.402C695.259 310.334 698.559 307.034 702.628 307.034C706.696 307.034 709.997 310.334 709.997 314.402C709.997 318.472 706.696 321.771 702.628 321.771ZM644.983 247.638C649.052 247.638 652.352 250.939 652.352 255.007C652.352 259.076 649.052 262.376 644.983 262.376C640.914 262.376 637.614 259.076 637.614 255.007C637.614 250.939 640.915 247.638 644.983 247.638Z" fill="white"/>
<path d="M580 1177C580 1185.28 530.746 1200.5 441 1200.5C351.254 1200.5 255 1185.28 255 1177C255 1168.72 327.754 1162 417.5 1162C507.246 1162 580 1168.72 580 1177Z" fill="#D0E0E7"/>
<path d="M191.787 867.799L193.881 860.812L234.348 886.339L238.388 897.774L207.231 882.999L191.787 867.799Z" fill="#130FFF"/>
<path d="M193.881 860.812L114 922.07L119.352 963.312L181.564 901.365L197.463 869.038L193.881 860.812Z" fill="url(#paint6_linear)"/>
<path d="M197.463 869.037C211.104 878.617 224.746 888.196 238.387 897.773C221.72 936.477 212.325 954.472 195.658 993.176C170.249 990.652 141.09 982.061 119.352 963.314C144.115 933.778 172.701 898.573 197.463 869.037Z" fill="url(#paint7_linear)"/>
<path d="M194.492 883.044L194.648 876.224L247.948 887.658L256.051 896.73L216.543 892.279L194.492 883.044Z" fill="#39FFE0"/>
<path d="M194.65 876.225L124.41 953.299L143.321 988.607L193.565 915.871L201.236 882.563L194.65 876.225Z" fill="url(#paint8_linear)"/>
<path d="M201.236 882.562C219.51 887.283 237.779 892.005 256.053 896.729C249.519 935.95 244.416 968.192 237.882 1007.41C207.673 996.774 173.528 999.243 143.318 988.606C161.792 955.3 182.767 915.865 201.236 882.562Z" fill="url(#paint9_linear)"/>
<path d="M374.407 821.932C351.069 826.293 342.77 869.71 337.662 896.425C331.91 926.508 325.503 960.021 341.625 992.417C361.901 1033.16 410.438 1057.31 464.735 1057.8C464.555 1054.27 464.374 1050.75 464.194 1047.21C411.35 1020.18 398.863 994.897 396.952 977.092C392.893 939.225 435.026 919.768 429.169 878.546C424.755 847.486 395.072 818.072 374.407 821.932Z" fill="#282F31"/>
<path d="M402.285 596.119C404.61 598.639 401.954 602.616 402.731 616.007C403.085 622.133 403.982 627.207 404.77 630.8C405.226 634.073 405.729 637.099 406.262 639.763C406.656 641.719 407.016 643.241 407.469 644.853C408.311 647.846 409.377 650.788 410.637 653.602C410.722 653.788 410.646 654.005 410.472 654.103C410.463 654.108 410.451 654.113 410.44 654.119C410.242 654.207 410.012 654.12 409.922 653.924C408.646 651.076 407.566 648.096 406.713 645.067C406.253 643.434 405.888 641.894 405.492 639.919C405.21 638.515 404.938 637.002 404.676 635.418C404.676 639.666 405.067 644.315 407.203 650.359C413.686 668.701 400.368 682.596 388.911 684.288C375.697 686.239 365.612 676.653 362.474 673.501C349.823 660.791 345.322 638.407 354.154 620.779C365.731 597.691 396.587 589.949 402.285 596.119Z" fill="#26264F"/>
<path d="M443.839 860.095C430.756 842.439 417.977 824.563 405.165 806.71C402.648 803.202 401.101 799.076 400.259 794.71C395.636 798.705 391.248 803.439 387.248 808.931C377.588 851.69 369.158 908.442 370.797 975.622C371.82 1017.54 386.583 1143.83 392.487 1175.48C394.176 1175.75 394.602 1171.36 396.328 1171.62C398.436 1171.93 399.124 1175.7 401.181 1175.97C404.574 1111.42 409.124 1053.1 411.397 1023.13C412.167 1012.96 414.425 982.464 429.653 957.335C429.896 956.928 452.57 923.04 460.32 909.555C462.899 905.065 466.117 899.247 469.729 891.497C460.002 882.09 452.067 871.196 443.839 860.095Z" fill="black"/>
<path d="M400.166 1141.1C399.132 1138.96 394.168 1144.65 389.575 1150.62C390.545 1158.91 391.516 1167.19 392.486 1175.48C390.723 1174.46 388.509 1173.35 386.042 1172.89C383.079 1172.34 378.049 1173.6 377.718 1175.03C375.674 1183.79 397.35 1184.77 399.601 1181.95C401.854 1179.13 401.18 1175.97 401.18 1175.97C398.467 1163.59 398.403 1155.12 399.198 1149.24C399.757 1145.11 400.736 1142.28 400.166 1141.1Z" fill="#1455FF"/>
<path d="M392.487 1175.48C394.174 1175.75 394.599 1171.36 396.328 1171.62C398.436 1171.93 399.123 1175.7 401.181 1175.97C402.422 1152.38 403.816 1129.63 405.199 1108.77C397.889 1108.23 390.491 1108.32 383.199 1108.54C386.746 1137.94 390.252 1163.49 392.487 1175.48Z" fill="#1455FF"/>
<path d="M370.597 617.708C370.946 615.549 372.627 606.708 379.916 600.519C393.749 588.779 418.464 594.489 433.391 605.08C449.011 616.161 443.956 625.471 459.478 637.966C476.336 651.538 486.38 643.807 509.143 656.244C518.097 661.138 542.228 674.322 546.242 698.375C549.711 719.157 537.088 741.638 519.821 751.596C490.265 768.645 448.894 747.955 428.227 727.13C408.406 707.155 419.703 700.591 390.374 661.085C379.772 646.807 367.983 633.862 370.597 617.708Z" fill="#26264F"/>
<path d="M256.235 829.763L253.079 831.903C253.079 831.903 246.916 834.558 243.695 836.885C240.474 839.211 239.309 841.942 241.065 845.593C242.821 849.241 247.49 847.547 251.553 846.122C254.024 845.255 256.265 841.74 257.822 838.744C258.916 836.634 262.734 833.379 262.734 833.379L256.235 829.763Z" fill="url(#paint10_linear)"/>
<path d="M348.053 688.084C328.12 714.206 335.938 728.176 322.288 749.751C308.754 771.135 295.474 766.255 270.65 795.86C261.225 807.101 254.949 817.57 251.08 824.77C251.905 825.998 252.841 827.292 253.894 828.621C254.611 829.522 255.682 830.818 257.432 832.685C259.115 834.476 261.77 837.163 265.483 840.412C277.602 840.665 298.041 839.042 315.159 825.159C318.274 822.63 320.375 820.722 323.196 817.372C332.674 806.117 334.729 793.837 355.575 765.436C371.318 743.992 373.661 742.402 376.619 732.185C383.932 706.928 375.523 676.638 364.674 674.831C359.014 673.891 353.575 680.845 348.053 688.084Z" fill="url(#paint11_linear)"/>
<path d="M354.588 681.038C344.455 693.668 342.834 707.762 342.581 714.013C341.791 733.459 350.933 748.303 353.126 752.222C363.483 770.753 364.37 809.292 324.236 896.642C329.262 900.019 348.168 926.907 354.292 912.438C362.641 892.713 395.695 756.588 366.818 916.838C366.437 918.948 370.982 918.061 373.145 918.624C388.669 922.656 407.039 924.858 427.407 922.49C459.33 918.782 482.564 905.424 494.718 897.127C483.879 877.672 471.881 851.069 464.507 818.037C450.438 755.022 460.628 701.969 468.576 673.106C458.003 667.311 424.711 650.798 388.402 661.01C379.354 663.555 365.26 667.729 354.588 681.038Z" fill="url(#paint12_linear)"/>
<path d="M460.092 941.081L456.158 935.835L503.202 912.825L514.708 914.862L482.23 934.961L460.092 941.081Z" fill="#51FFC2"/>
<path d="M456.159 935.835L448.879 1035.75L484.125 1051.19L478.882 966.421L464.9 936.711L456.159 935.835Z" fill="url(#paint13_linear)"/>
<path d="M464.902 936.712C481.505 929.429 498.11 922.146 514.712 914.863C533.064 948.362 548.356 975.742 566.708 1009.24C537.579 1019.15 513.257 1041.29 484.126 1051.19C478.3 1015.07 470.728 972.832 464.902 936.712Z" fill="url(#paint14_linear)"/>
<path d="M479.604 940.272L474.521 935.047L516.51 912.106L528.465 914.141L500.4 934.176L479.604 940.272Z" fill="#130FFF"/>
<path d="M474.521 935.047L489.184 1034.64L527.821 1050.02L503.961 965.532L483.453 935.918L474.521 935.047Z" fill="url(#paint15_linear)"/>
<path d="M483.451 935.919C498.456 928.659 513.461 921.399 528.465 914.142C554.174 947.53 565.323 964.491 591.031 997.885C576.468 1018.86 554.776 1040.15 527.822 1050.03C514.061 1014.02 497.21 971.919 483.451 935.919Z" fill="url(#paint16_linear)"/>
<path d="M394.669 637.17C392.108 644.092 390.222 652.611 394.365 657.765C396.889 660.903 400.687 662.407 404.425 663.805C413.264 667.11 416.988 665.007 418.91 667.37C423.14 672.568 415.004 694.915 398.331 698.508C381.737 702.088 364.652 685.375 366.379 677.386C367.935 670.182 384.684 670.655 386.726 661.54C387.753 656.952 384.521 652.308 381.786 649.225L379.827 649.602L394.669 637.17Z" fill="url(#paint17_linear)"/>
<path d="M485.168 858.138L483.361 861.494C483.361 861.494 479.129 866.703 477.35 870.255C475.57 873.807 475.803 876.768 479.049 879.191C482.297 881.612 485.651 877.949 488.591 874.809C490.382 872.896 490.743 868.742 490.734 865.368C490.729 862.993 492.607 858.335 492.607 858.335L485.168 858.138Z" fill="url(#paint18_linear)"/>
<path d="M390.421 644.246C390.421 644.246 389.577 652.725 381.186 652.768C370.846 652.821 369.699 625.536 372.214 623.979C375.129 622.17 377.681 626.598 384.467 625.053C387.324 624.405 389.793 620.729 391.244 624.69C392.892 629.198 391.499 637.173 391.499 637.173C391.499 637.173 393.954 635.15 394.331 637.586C394.826 640.777 392.432 642.77 390.421 644.246Z" fill="url(#paint19_linear)"/>
<path d="M374.064 614.599C370.783 617.948 368.974 624.44 371.248 627.703C374.514 632.392 384.179 627.496 388.13 633.231C389.864 635.746 389.763 639.234 390.662 639.178C391.406 639.13 391.845 636.714 392.275 634.723C394.639 623.755 397.372 622.523 396.538 619.383C394.846 613.001 380.802 607.73 374.064 614.599Z" fill="#26264F"/>
<path d="M436.749 670.937C448.537 660.194 490.402 690.293 514.469 728.395C522.106 740.492 530.667 754.409 532.237 774.894C534.069 798.812 525.303 817.715 520.917 827.175C513.184 843.851 503.453 854.955 497.059 861.263C494.43 861.313 491.321 861.164 487.873 860.58C484.717 860.047 481.94 859.258 479.597 858.428C476.204 849.814 472.117 836.518 471.921 820.03C471.797 809.573 473.31 804.189 475.266 789.881C479.285 760.471 481.292 745.768 478.691 737.935C470.119 712.137 438.549 714.997 433.829 689.461C433.493 687.666 431.454 675.762 436.749 670.937Z" fill="url(#paint20_linear)"/>
<path d="M391.243 624.69C388.956 627.191 393.974 635.469 404.105 651.931C410.342 662.06 413.459 667.124 415.462 669.315C426.253 681.106 444.46 690.189 462.871 689.166C475.508 688.463 477.357 683.607 487.715 685.334C503.338 687.941 512.26 701.185 512.968 700.486C513.75 699.718 503.658 682.768 483.396 668.633C466.819 657.069 462.31 660.557 436.255 644.538C434.365 643.377 426.363 638.425 415.131 632.853C401.928 626.299 393.521 622.202 391.243 624.69Z" fill="#26264F"/>
<path d="M464.194 1047.22C451.292 1040.62 440.809 1034.13 432.285 1027.82C428.814 1035.69 426.669 1044.4 425.869 1053.21C438.246 1056.11 451.311 1057.68 464.732 1057.8C464.555 1054.27 464.373 1050.75 464.194 1047.22Z" fill="#130FFF"/>
<path d="M462.762 1049.18L464.194 1047.22C464.194 1047.22 466.497 1046.16 467.228 1048.95C467.959 1051.74 472.244 1066.38 471.865 1072.76C469.927 1076.4 465.968 1072.71 465.359 1070.03C464.75 1067.35 462.711 1057.43 462.711 1057.43L462.762 1049.18Z" fill="#130FFF"/>
<path d="M1215 1193C1215 1201.28 1134.75 1213.5 1045 1213.5C955.254 1213.5 890 1201.28 890 1193C890 1184.72 962.754 1178 1052.5 1178C1142.25 1178 1215 1184.72 1215 1193Z" fill="#D0E0E7"/>
<path d="M792.838 639.151C791.828 639.431 790.976 640.103 790.471 641.024C789.968 641.943 789.864 643.026 790.178 644.026L812.16 713.997C812.789 715.999 814.904 717.13 816.919 716.541L867.968 701.653C870.002 701.059 871.174 698.936 870.596 696.897L850.807 627.262C850.229 625.23 848.122 624.04 846.083 624.599L792.838 639.151Z" fill="#26264F"/>
<path d="M796.9 642.555C795.999 642.802 795.236 643.401 794.79 644.221C794.341 645.043 794.248 646.008 794.527 646.9L814.128 709.302C814.69 711.086 816.573 712.094 818.371 711.57L863.894 698.293C865.707 697.767 866.753 695.875 866.239 694.056L848.589 631.955C848.076 630.144 846.195 629.082 844.378 629.579L796.9 642.555Z" fill="url(#paint21_linear)"/>
<path d="M1089.91 675.054C1092.78 676.137 1136.58 693.562 1145.59 739.275C1146.32 742.969 1153.36 782.25 1126.72 809.996C1096.85 841.111 1039.33 840.34 1016.5 814.33C1011.18 808.263 1008.37 801.54 1006.79 795.889L1012.81 779.91C1020.15 771.051 1030.14 768.95 1035.48 767.636C1048.64 764.393 1058.57 770.256 1066.11 763.909C1070.28 760.397 1071.1 755.343 1071.85 750.832C1074.37 735.457 1065.69 725.996 1065.06 716.516C1064.59 709.428 1062.1 693.903 1071.35 683.773C1077.21 677.362 1085.32 675.615 1089.91 675.054Z" fill="#130FFF"/>
<path d="M1106.98 1184.57C1107.48 1181.75 1116.57 1179.21 1121.08 1182.98C1123.31 1184.85 1124.85 1188.64 1123.56 1190.36C1123.09 1190.98 1125.01 1192.08 1123.17 1192.1C1117.04 1192.17 1106.47 1187.37 1106.98 1184.57Z" fill="url(#paint22_linear)"/>
<path d="M1116.5 1185.6L1125.85 1184.28C1121.52 1179.06 1122.32 1162.46 1122.32 1162.46L1112.38 1164.67C1112.38 1164.67 1113.51 1169.23 1115.44 1175.96C1116.1 1178.26 1116.4 1181.86 1116.5 1185.6Z" fill="url(#paint23_linear)"/>
<path d="M1115.67 1184.44C1115.67 1184.44 1126.93 1181.85 1128.14 1184.08C1129.36 1186.31 1130.31 1192.29 1123.16 1192.1C1116.02 1191.91 1115.04 1186.34 1115.67 1184.44Z" fill="url(#paint24_linear)"/>
<path d="M978.712 1195.12C979.612 1192.41 988.968 1191.16 992.896 1195.52C994.849 1197.69 995.841 1201.66 994.32 1203.18C993.767 1203.73 995.519 1205.08 993.691 1204.85C987.619 1204.06 977.817 1197.82 978.712 1195.12Z" fill="url(#paint25_linear)"/>
<path d="M816.898 718.783L808.351 714.694C807.027 713.63 804.995 711.749 803.458 708.863C800.924 704.112 800.965 698.969 800.997 698.964C801.019 698.959 800.607 692.048 803.542 690.876C803.926 690.723 804.369 690.675 804.88 690.755L807.919 698.76C807.919 698.76 808.408 702.245 813.897 705.859C819.341 710.601 821.534 714.933 821.534 714.933L816.898 718.783Z" fill="url(#paint26_linear)"/>
<path d="M988.002 1197.47H997.442C993.884 1191.7 997.004 1175.37 997.004 1175.37L986.85 1176.18C986.85 1176.18 987.333 1180.85 988.301 1187.78C988.631 1190.15 988.419 1193.76 988.002 1197.47Z" fill="url(#paint27_linear)"/>
<path d="M963.534 840.464C959.162 854.907 952.918 878.219 948.898 907.461C937.428 990.875 961.804 993.535 957.249 1085.97C955.798 1115.48 982.813 1183.51 985.191 1185.01C986.344 1185.12 987.596 1185.2 988.929 1185.16C991.277 1185.09 994.59 1184.73 998.443 1183.57C1002.72 1182.84 1018.15 1141.05 1014.58 1116.2C1012.04 1098.61 1012.78 1079.74 1014.25 1042C1014.48 1035.88 1030.13 923.013 1030.13 923.013C1034.89 964.793 1040.37 1000.29 1045.11 1027.81C1060.36 1116.24 1109.93 1169.76 1112.52 1170.62C1113.03 1170.82 1117.68 1172.51 1121.48 1170C1123.17 1168.89 1123.75 1167.45 1123.75 1167.45C1125.08 1166.41 1123.36 1079.17 1108.24 1013.51C1086.29 918.201 1095.85 895.902 1088.9 853.335C1082.88 816.496 963.534 840.464 963.534 840.464Z" fill="#282F31"/>
<path d="M1052.19 667.617C1037.62 667.187 1009.4 662.431 990.947 679.029C990.627 679.316 989.133 680.953 987.274 683.129C985.546 685.155 979.621 692.241 974.247 701.82C970.357 708.757 966.845 716.848 963.303 728.896C957.053 750.153 955.261 768.252 954.659 776.141C951.287 820.489 954.632 840.951 957.666 854.864C970.84 861.632 1004.79 873.74 1045.24 867.724C1063.71 864.978 1078.5 858.83 1088.9 853.34C1078.4 821.562 1086.64 804.556 1090.52 788.88C1096.06 766.532 1096.15 768.223 1100.71 750.467C1108.24 721.171 1109.47 691.236 1104.3 685.112C1090.36 668.598 1065.24 667.999 1052.19 667.617Z" fill="#1455FF"/>
<path d="M987.34 1196.22C987.34 1196.22 998.845 1195.22 999.74 1197.6C1000.63 1199.99 1000.73 1206.04 993.689 1204.85C986.646 1203.65 986.447 1198 987.34 1196.22Z" fill="url(#paint28_linear)"/>
<path d="M1013.63 672.931C997.688 662.562 956.015 695.05 943.395 704.008C894.473 738.756 900.339 760.429 878.118 749.609C863.092 742.292 861.053 720.24 835.379 711.948C830.84 710.478 826.931 709.885 824.419 709.616C824.384 709.635 815.941 714.127 815.904 714.138C812.905 715.108 809.906 716.081 807.389 718.663C804.919 723.79 802.654 730.031 801.518 737.313C801.759 739.901 802.267 744.189 803.433 749.364C804.395 753.65 815.678 800.54 854.883 814.983C862.087 817.635 868.071 818.398 871.091 818.763C883.975 820.324 895.655 818.414 915.617 811.535C949.435 799.885 975.254 788.954 998.08 762.235C999.168 760.964 1000.05 759.714 1000.93 758.368C1017.91 732.34 1029.01 682.94 1013.63 672.931Z" fill="#1455FF"/>
<path d="M1011.18 650.913C1006.66 643.28 1008.67 634.56 1009.13 632.677C1011.02 624.79 1011.73 623.597 1013.2 621.926L1015.27 619.739C1015.27 619.739 1015.4 619.642 1015.53 619.551C1016.97 618.559 1022.35 616.953 1023.51 616.894C1027.21 616.708 1034.76 629.995 1039.07 650.481C1039.43 651.209 1039.77 651.95 1040.12 652.695C1042.26 657.34 1044.1 661.911 1045.67 666.366C1070.72 668.486 1074.2 671.423 1074.31 673.121C1074.54 676.695 1060.27 680.819 1049.54 682.394C1026.13 685.82 1002.07 679.648 1002.18 675.284C1002.23 673.384 1006.88 670.907 1026.72 668.309C1026.26 665.022 1025.8 661.739 1025.33 658.458C1023.72 658.095 1014.5 656.534 1011.18 650.913Z" fill="url(#paint29_linear)"/>
<path d="M1006.47 615.936C1008.16 622.188 1012.89 628.083 1014.68 628.758C1014.91 628.844 1016.23 629.416 1017.6 630.628C1017.79 630.795 1017.97 630.999 1018.16 631.273C1020.58 634.852 1015.55 641.164 1017.23 642.604C1018.44 643.654 1022.25 640.804 1023.05 641.774C1023.81 642.687 1020.84 645.788 1021.71 646.89C1022.38 647.72 1024.33 646.277 1026.08 647.352C1026.96 647.886 1026.91 648.512 1028.22 650.514C1028.96 651.645 1029.9 652.852 1030.55 653.486C1033.69 656.584 1040.17 656.294 1040.96 654.51C1041.18 654.01 1040.8 653.744 1040.77 652.28C1040.77 652.28 1040.74 650.923 1041.24 649.211C1041.94 646.769 1044.6 644.45 1047.09 641.405C1051.71 635.763 1052.33 631.843 1052.48 630.534C1052.53 630.069 1052.55 629.723 1052.56 629.473C1052.82 624.464 1051.02 617.688 1047.84 614.076C1042.5 608.023 1035.55 613.426 1027.29 608.219C1017.76 602.213 1019.27 590.135 1014.93 590.001C1010.15 589.853 1003.35 604.376 1006.47 615.936Z" fill="#26264F"/>
<path d="M1019.09 640.539C1020.06 638.021 1023.28 639.284 1024.02 642.006C1024.76 644.728 1022.88 648.266 1020.17 648.411C1017.47 648.557 1017.78 643.922 1019.09 640.539Z" fill="url(#paint30_linear)"/>
<path d="M1019.11 635.641L1016.79 641.216C1016.79 641.216 1014.47 647.909 1011.4 645.4C1008.89 643.352 1008.43 643.535 1008.35 643.669C1008.33 643.696 1008.33 643.726 1008.33 643.726C1008.29 643.726 1008.26 642.39 1008.24 641.213C1007.65 642.828 1006.93 645.381 1006.94 648.557C1006.94 651.644 1006.94 654.952 1009.35 657.48C1009.49 657.628 1012.12 660.304 1015.67 660.175C1015.67 660.175 1017.07 660.124 1022.37 657.666C1022.37 657.666 1015.12 654.877 1014.74 653.853C1013.73 651.075 1017.27 648.482 1018.65 641.861C1019.18 639.316 1019.19 637.124 1019.11 635.641Z" fill="#26264F"/>
</g>
<defs>
<linearGradient id="paint0_linear" x1="978" y1="1141" x2="194.939" y2="813.538" gradientUnits="userSpaceOnUse">
<stop stop-color="#130FFF"/>
<stop offset="1" stop-color="#1CA3FF"/>
</linearGradient>
<linearGradient id="paint1_linear" x1="669.474" y1="1065.36" x2="-171.494" y2="534.693" gradientUnits="userSpaceOnUse">
<stop stop-color="#130FFF"/>
<stop offset="1" stop-color="#1CA3FF"/>
</linearGradient>
<linearGradient id="paint2_linear" x1="580.001" y1="1128.54" x2="1490.46" y2="553.177" gradientUnits="userSpaceOnUse">
<stop stop-color="#130FFF"/>
<stop offset="1" stop-color="#1CA3FF"/>
</linearGradient>
<linearGradient id="paint3_linear" x1="551.899" y1="818.162" x2="868.035" y2="-2.36096" gradientUnits="userSpaceOnUse">
<stop stop-color="#2B3582"/>
<stop offset="1" stop-color="#150E42"/>
</linearGradient>
<linearGradient id="paint4_linear" x1="656.348" y1="631.816" x2="773.827" y2="-344.478" gradientUnits="userSpaceOnUse">
<stop stop-color="#53EAC9"/>
<stop offset="0.9964" stop-color="#45AED8"/>
</linearGradient>
<linearGradient id="paint5_linear" x1="677.263" y1="10.5164" x2="675.211" y2="135.66" gradientUnits="userSpaceOnUse">
<stop stop-color="#8D55D1"/>
<stop offset="0.9964" stop-color="#1C2873"/>
</linearGradient>
<linearGradient id="paint6_linear" x1="197.463" y1="963.312" x2="97.0891" y2="881.581" gradientUnits="userSpaceOnUse">
<stop stop-color="#130FFF"/>
<stop offset="1" stop-color="#1CA3FF"/>
</linearGradient>
<linearGradient id="paint7_linear" x1="238.387" y1="993.176" x2="114.357" y2="874.245" gradientUnits="userSpaceOnUse">
<stop stop-color="#130FFF"/>
<stop offset="1" stop-color="#1CA3FF"/>
</linearGradient>
<linearGradient id="paint8_linear" x1="124.41" y1="876.225" x2="227.757" y2="944.341" gradientUnits="userSpaceOnUse">
<stop stop-color="#C7FFDA"/>
<stop offset="1" stop-color="#39FFE0"/>
</linearGradient>
<linearGradient id="paint9_linear" x1="143.318" y1="882.562" x2="267.061" y2="990.292" gradientUnits="userSpaceOnUse">
<stop stop-color="#C7FFDA"/>
<stop offset="1" stop-color="#39FFE0"/>
</linearGradient>
<linearGradient id="paint10_linear" x1="240.498" y1="844.406" x2="277.796" y2="826.448" gradientUnits="userSpaceOnUse">
<stop stop-color="#FFC444"/>
<stop offset="0.9964" stop-color="#F36F56"/>
</linearGradient>
<linearGradient id="paint11_linear" x1="379.368" y1="840.435" x2="218.957" y2="716.233" gradientUnits="userSpaceOnUse">
<stop stop-color="#130FFF"/>
<stop offset="1" stop-color="#1CA3FF"/>
</linearGradient>
<linearGradient id="paint12_linear" x1="494.718" y1="923.465" x2="253.182" y2="768.496" gradientUnits="userSpaceOnUse">
<stop stop-color="#130FFF"/>
<stop offset="1" stop-color="#1CA3FF"/>
</linearGradient>
<linearGradient id="paint13_linear" x1="448.879" y1="935.835" x2="511.459" y2="954.271" gradientUnits="userSpaceOnUse">
<stop stop-color="#C7FFDA"/>
<stop offset="1" stop-color="#39FFE0"/>
</linearGradient>
<linearGradient id="paint14_linear" x1="464.902" y1="914.863" x2="594.276" y2="1008.01" gradientUnits="userSpaceOnUse">
<stop stop-color="#C7FFDA"/>
<stop offset="1" stop-color="#39FFE0"/>
</linearGradient>
<linearGradient id="paint15_linear" x1="527.821" y1="1050.02" x2="440.077" y2="1009.35" gradientUnits="userSpaceOnUse">
<stop stop-color="#130FFF"/>
<stop offset="1" stop-color="#1CA3FF"/>
</linearGradient>
<linearGradient id="paint16_linear" x1="591.031" y1="1050.03" x2="458.77" y2="945.317" gradientUnits="userSpaceOnUse">
<stop stop-color="#130FFF"/>
<stop offset="1" stop-color="#1CA3FF"/>
</linearGradient>
<linearGradient id="paint17_linear" x1="399.134" y1="722.868" x2="385.384" y2="612.856" gradientUnits="userSpaceOnUse">
<stop stop-color="#FFC444"/>
<stop offset="0.9964" stop-color="#F36F56"/>
</linearGradient>
<linearGradient id="paint18_linear" x1="477.998" y1="878.405" x2="502.756" y2="845.222" gradientUnits="userSpaceOnUse">
<stop stop-color="#FFC444"/>
<stop offset="0.9964" stop-color="#F36F56"/>
</linearGradient>
<linearGradient id="paint19_linear" x1="382.692" y1="628.099" x2="383.525" y2="722.369" gradientUnits="userSpaceOnUse">
<stop stop-color="#FFC444"/>
<stop offset="0.9964" stop-color="#F36F56"/>
</linearGradient>
<linearGradient id="paint20_linear" x1="532.485" y1="861.272" x2="375.593" y2="780.338" gradientUnits="userSpaceOnUse">
<stop stop-color="#130FFF"/>
<stop offset="1" stop-color="#1CA3FF"/>
</linearGradient>
<linearGradient id="paint21_linear" x1="855.5" y1="690.5" x2="805" y2="650" gradientUnits="userSpaceOnUse">
<stop stop-color="#D0E0E7"/>
<stop offset="1" stop-color="#EEFAFF"/>
</linearGradient>
<linearGradient id="paint22_linear" x1="1101.92" y1="1176.44" x2="1121.93" y2="1189.74" gradientUnits="userSpaceOnUse">
<stop stop-color="#444B8C"/>
<stop offset="0.9964" stop-color="#26264F"/>
</linearGradient>
<linearGradient id="paint23_linear" x1="1121.29" y1="1189.88" x2="1116.91" y2="1158.9" gradientUnits="userSpaceOnUse">
<stop stop-color="#FFC444"/>
<stop offset="0.9964" stop-color="#F36F56"/>
</linearGradient>
<linearGradient id="paint24_linear" x1="1103.42" y1="1174.18" x2="1123.44" y2="1187.48" gradientUnits="userSpaceOnUse">
<stop stop-color="#444B8C"/>
<stop offset="0.9964" stop-color="#26264F"/>
</linearGradient>
<linearGradient id="paint25_linear" x1="974.853" y1="1186.38" x2="992.807" y2="1202.35" gradientUnits="userSpaceOnUse">
<stop stop-color="#444B8C"/>
<stop offset="0.9964" stop-color="#26264F"/>
</linearGradient>
<linearGradient id="paint26_linear" x1="800.168" y1="696.983" x2="819.508" y2="714.262" gradientUnits="userSpaceOnUse">
<stop stop-color="#FFC444"/>
<stop offset="0.9964" stop-color="#F36F56"/>
</linearGradient>
<linearGradient id="paint27_linear" x1="992.147" y1="1202.38" x2="992.147" y2="1171.1" gradientUnits="userSpaceOnUse">
<stop stop-color="#FFC444"/>
<stop offset="0.9964" stop-color="#F36F56"/>
</linearGradient>
<linearGradient id="paint28_linear" x1="976.658" y1="1184.35" x2="994.612" y2="1200.32" gradientUnits="userSpaceOnUse">
<stop stop-color="#444B8C"/>
<stop offset="0.9964" stop-color="#26264F"/>
</linearGradient>
<linearGradient id="paint29_linear" x1="992.509" y1="616.722" x2="1089.74" y2="739.051" gradientUnits="userSpaceOnUse">
<stop stop-color="#FFC444"/>
<stop offset="0.9964" stop-color="#F36F56"/>
</linearGradient>
<linearGradient id="paint30_linear" x1="996.612" y1="613.466" x2="1093.84" y2="735.786" gradientUnits="userSpaceOnUse">
<stop stop-color="#FFC444"/>
<stop offset="0.9964" stop-color="#F36F56"/>
</linearGradient>
<clipPath id="clip0">
<rect width="1334" height="1305" fill="white"/>
</clipPath>
</defs>
</svg>
