<svg width="1335" height="1305" viewBox="0 0 1335 1305" fill="none" xmlns="http://www.w3.org/2000/svg">
<path opacity="0.1" d="M1236.72 251.391C1129.7 145.068 972.01 196.801 922.094 352.465C872.178 508.129 508.876 795.243 582.415 963.157C655.953 1131.07 834.936 1116.52 1037.69 913.172C1240.44 709.826 1343.75 357.714 1236.72 251.391Z" fill="url(#paint0_linear)"/>
<path opacity="0.1" d="M117.512 249.765C218.012 148.765 353.01 213.266 387.01 376.265C421.01 539.264 721.512 859.767 646.512 1026.27C571.511 1192.76 415.51 1164.76 250.51 941.765C85.5108 718.766 17.0117 350.765 117.512 249.765Z" fill="url(#paint1_linear)"/>
<path opacity="0.1" d="M882.915 586.234C866.011 741.854 656.117 1141.85 523.74 1141.85C391.363 1141.85 431.166 836.739 431.166 548.48C431.166 260.222 410.65 41.3372 624.32 41.8476C837.989 42.3579 899.819 430.614 882.915 586.234Z" fill="url(#paint2_linear)"/>
<path d="M968.613 1169.93C968.613 1182.26 832.589 1200.41 699.061 1200.41C565.532 1200.41 485.062 1182.26 485.062 1169.93C485.062 1157.61 630.171 1141.85 763.699 1141.85C897.228 1141.85 968.613 1157.61 968.613 1169.93Z" fill="#D0E0E7"/>
<path d="M453.907 124.484L973.005 179.912L892.521 546.394L362.033 517.795L453.907 124.484Z" fill="#D0E0E7"/>
<path fill-rule="evenodd" clip-rule="evenodd" d="M729.107 153.78L453.907 124.395L362.033 517.705L640.59 532.722L729.107 153.78Z" fill="#BECCD3"/>
<path d="M418.732 331.223L406.701 319.196C406.701 319.196 397.681 307.543 403.694 291.004C409.708 274.469 417.725 278.895 417.725 278.895L414.975 290.676C414.975 290.676 414.22 298.145 421.364 307.543C427.752 318.817 428.879 327.467 428.879 327.467L418.732 331.223Z" fill="url(#paint3_linear)"/>
<path d="M919.416 378.087L932.381 365.581L937.256 343.503C937.256 343.503 955.5 350.017 946.48 371.068C940.715 378.087 926.556 388.608 920.543 398.885C914.529 409.163 919.416 378.087 919.416 378.087Z" fill="url(#paint4_linear)"/>
<path d="M786.098 527.692C786.098 527.692 851.005 487.595 866.791 473.31C883.256 458.419 926.56 401.141 930.319 394.375C934.074 387.608 918.667 374.08 918.667 374.08C918.667 374.08 843.234 468.302 748.512 440.488C763.549 474.315 786.098 527.692 786.098 527.692Z" fill="#1CA3FF"/>
<path d="M795.496 1081.38C795.496 1081.38 807.401 1111.33 804.268 1124.61C817.047 1124.36 825.319 1122.72 825.319 1122.72C825.319 1122.72 820.18 1109.07 819.179 1102.3C817.824 1093.16 817.926 1078.37 817.926 1078.37L795.496 1081.38Z" fill="url(#paint5_linear)"/>
<path d="M664.278 1151.42C665.047 1152.35 666.414 1154.29 666.528 1156.92C666.592 1158.34 666.264 1159.52 665.851 1160.6C663.821 1165.94 660.637 1166.65 657.197 1172.32C655.097 1175.78 655.491 1176.82 653.564 1178.39C651.026 1180.45 647.956 1180.56 645.296 1180.6C640.796 1180.65 634.321 1180.49 626.168 1179.52C630.44 1174.01 634.983 1168.42 639.815 1162.77C641.935 1160.29 644.051 1157.88 646.159 1155.51L658.722 1151.27C660.578 1151.32 662.43 1151.36 664.278 1151.42Z" fill="#26264F"/>
<path d="M653.834 1090.43C653.834 1090.43 646.653 1127.89 655.788 1138.38C663.575 1148.87 652.033 1141.39 652.033 1141.39L638.248 1153.42L629.977 1167.71C629.977 1167.71 637.59 1131.04 635.56 1116.49C633.527 1101.94 632.514 1092.13 632.514 1092.13L653.834 1090.43Z" fill="url(#paint6_linear)"/>
<path d="M689.373 440.233C654.427 434.338 604.381 452.032 546.535 421.436C489.62 391.333 455.994 346.906 436.401 318.442C427.885 322.651 419.373 326.864 410.857 331.072C425.324 356.04 459.395 409.539 504.543 446.782C561.384 493.669 616.987 496.415 647.275 534.703C661.512 520.591 706.424 443.11 689.373 440.233Z" fill="#1CA3FF"/>
<path d="M626.764 680.657C626.764 680.657 607.475 697.918 607.475 768.976C607.475 840.034 616.609 994.336 616.609 994.336L631.229 1104.8C631.229 1104.8 646.389 1105.35 656.54 1102.3C665.674 1060.68 680.563 990.273 673.457 931.395C670.411 867.442 698.831 787.249 698.831 787.249C698.831 787.249 723.197 868.458 740.453 909.063C757.709 949.672 790.567 1076.87 793.609 1086.01C813.801 1087.84 822.423 1082.5 822.423 1082.5C822.423 1082.5 809.478 945.605 797.297 893.833C785.113 842.06 786.129 717.199 765.827 681.67C720.155 663.401 626.764 680.657 626.764 680.657Z" fill="url(#paint7_linear)"/>
<path d="M626.764 680.657C626.764 680.657 607.475 697.918 607.475 768.976C607.475 840.034 616.609 994.336 616.609 994.336L631.229 1104.8C631.229 1104.8 646.389 1105.35 656.54 1102.3C665.674 1060.68 680.563 990.273 673.457 931.395C670.411 867.442 698.831 787.249 698.831 787.249C698.831 787.249 723.197 868.458 740.453 909.063C757.709 949.672 790.567 1076.87 793.609 1086.01C813.801 1087.84 822.423 1082.5 822.423 1082.5C822.423 1082.5 809.478 945.605 797.297 893.833C785.113 842.06 786.129 717.199 765.827 681.67C720.155 663.401 626.764 680.657 626.764 680.657Z" fill="black" fill-opacity="0.5"/>
<path opacity="0.25" d="M726.96 810.862C732.97 849.954 745.001 871.005 775.072 898.065C799.13 916.11 781.085 955.201 790.106 985.273C793.116 994.297 802.137 1003.32 805.139 1012.34C816.331 1034.72 805.88 1062.09 810.956 1085.79C818.849 1084.7 822.431 1082.51 822.431 1082.51C822.431 1082.51 809.486 945.61 797.305 893.837C785.121 842.064 786.137 717.204 765.835 681.675C720.155 663.402 626.764 680.658 626.764 680.658C626.764 680.658 607.475 697.914 607.475 768.977C607.475 774.742 607.534 781.059 607.644 787.793C627.667 805.515 668.622 809.451 693.878 789.811C695.407 788.664 697.031 787.963 698.705 787.624C698.784 787.395 698.835 787.246 698.835 787.246C698.835 787.246 698.879 787.383 698.942 787.596C710.437 785.5 724.347 800.431 726.96 810.862Z" fill="black" fill-opacity="0.5"/>
<path d="M801.136 1135.97C801.136 1135.97 798.169 1135.97 798.417 1139.8C798.661 1143.63 797.081 1156.81 812.162 1157.43C827.239 1158.05 829.568 1156.36 830.061 1156.36C830.557 1156.36 826.104 1143.75 826.104 1143.75L821.285 1137.57L808.304 1136.21L801.136 1135.97Z" fill="#26264F"/>
<path d="M834.572 1149.19C834.248 1146.01 832.467 1141 830.678 1136.97C828.014 1130.97 830.201 1128.73 827.656 1123.28C826.773 1121.39 825.922 1119.6 824.062 1117.83C823.636 1117.42 819.471 1113.57 813.41 1113.77C812.22 1113.81 810.38 1113.89 808.402 1114.95C806.061 1116.2 804.89 1118.07 803.889 1119.71C802.317 1122.29 802.676 1123.08 800.256 1130.48C800.059 1131.08 799.633 1132.37 799.306 1134.15C799.058 1135.52 798.952 1136.66 798.908 1137.44C802.865 1137.44 818.064 1138.06 821.284 1140.41C824.495 1142.76 826.103 1146.72 826.103 1150.67C826.103 1154.63 828.081 1156.49 830.059 1156.36C831.825 1156.25 835.34 1152.98 834.572 1149.19Z" fill="#444B8C"/>
<path d="M651.908 1133.12C655.305 1133.17 657.795 1135.88 659.679 1142.4C661.559 1148.91 670.579 1154.68 660.053 1153.3C649.528 1151.92 641.887 1166.83 638.131 1172.35C634.372 1177.85 624.28 1182.76 624.532 1177.37C624.784 1171.97 629.233 1169.46 630.486 1163.95C631.735 1158.43 644.161 1133 651.908 1133.12Z" fill="#444B8C"/>
<path d="M723.449 437.979C706.41 437.475 663.043 432.742 642.756 453.013C622.012 473.741 643.016 498.623 639.28 532.784C636.743 555.944 637.657 569.594 633.259 607.46C632.361 615.188 630.906 623.838 628.451 634.3C622.663 658.985 612.59 707.518 607.172 719.644C624.531 728.561 669.261 744.517 722.559 736.589C746.896 732.967 766.375 724.869 780.085 717.638C766.253 675.764 768.838 618.403 773.953 597.754C784.061 556.976 786.347 540.969 814.917 482.328C822.794 466.159 804.092 475.215 792.112 461.032C773.74 439.268 740.639 438.484 723.449 437.979Z" fill="#1CA3FF"/>
<path opacity="0.25" d="M672.831 544.733C673.702 537.203 675.113 523.442 668.319 509.023C667.196 506.639 663.377 498.99 656.288 492.484C641.175 478.605 621.673 479.523 599.408 477.927C583.117 476.757 559.781 473.844 531.021 465.845C573.786 492.665 613.606 500.944 639.705 526.381C639.65 528.478 639.516 530.614 639.28 532.789C636.742 555.948 637.656 569.599 633.258 607.465C632.36 615.193 630.906 623.843 628.451 634.305C622.662 658.989 612.59 707.523 607.175 719.648C624.53 728.566 669.264 744.522 722.558 736.593C746.896 732.972 766.375 724.874 780.084 717.643C775.864 704.859 773.172 690.629 771.62 676.443C752.019 676.36 723.504 673.266 693.878 658.252C677.366 649.882 669.107 645.694 664.185 636.453C654.735 618.704 666.218 602.184 672.831 544.733Z" fill="#130FFF"/>
<path d="M709.038 403.07C710.725 390.062 721.002 381.735 723.244 379.95C732.635 372.483 734.546 371.734 737.774 371.123L742.175 370.453C742.175 370.453 742.415 370.461 742.656 370.477C745.237 370.631 752.965 373.649 754.372 374.638C758.864 377.795 755.558 400.154 741.947 427.956C741.411 430.312 740.879 432.661 740.343 435.017C752.204 437.102 755.144 439.242 755.235 440.952C755.44 444.652 742.451 449.377 730.412 449.684C715.319 450.071 699.297 443.572 699.604 438.729C699.726 436.767 702.575 434.347 713.534 431.971C715.245 429.563 716.959 427.152 718.669 424.748C717.116 422.856 707.793 412.646 709.038 403.07Z" fill="url(#paint8_linear)"/>
<path d="M737.774 361.971C733.037 366.597 731.879 374.636 733.278 380.433C734.113 383.901 735.197 384.267 735.043 386.537C734.61 392.909 722.996 395.687 723.643 398.899C724.104 401.192 730.145 400.353 731.185 403.233C732.328 406.39 725.688 409.105 722.839 417.042C722.397 418.275 719.694 425.79 723.158 430.207C726.393 434.329 733.624 433.352 741.785 432.292C750.782 431.122 757.233 428.466 759.12 427.634C765.075 425.022 771.479 422.212 776.779 415.753C778.036 414.224 785.425 404.952 784.806 391.995C783.99 374.971 769.76 360.43 755.105 358.121C752.737 357.746 743.578 356.296 737.774 361.971Z" fill="url(#paint9_linear)"/>
<path d="M727.696 398.169C731.117 396.12 733.726 400.53 732.114 404.376C730.502 408.222 725.084 410.634 721.797 408.336C718.511 406.043 723.09 400.932 727.696 398.169Z" fill="url(#paint10_linear)"/>
<path d="M693.178 438.041L701.52 435.472C701.52 435.472 703.703 446.77 730.536 448.184C745.427 448.184 755.058 439.842 755.058 439.842L761.478 442.793C761.478 442.793 748.253 459.624 728.356 459.226C702.675 458.71 693.178 438.041 693.178 438.041Z" fill="url(#paint11_linear)"/>
<defs>
<linearGradient id="paint0_linear" x1="1293.35" y1="208.225" x2="394.253" y2="754.839" gradientUnits="userSpaceOnUse">
<stop stop-color="#C7FFDA"/>
<stop offset="1" stop-color="#39FFE0"/>
</linearGradient>
<linearGradient id="paint1_linear" x1="70.5723" y1="201.432" x2="898.538" y2="705.165" gradientUnits="userSpaceOnUse">
<stop stop-color="#C7FFDA"/>
<stop offset="1" stop-color="#39FFE0"/>
</linearGradient>
<linearGradient id="paint2_linear" x1="425.553" y1="41.8467" x2="1189.05" y2="349.684" gradientUnits="userSpaceOnUse">
<stop stop-color="#C7FFDA"/>
<stop offset="1" stop-color="#39FFE0"/>
</linearGradient>
<linearGradient id="paint3_linear" x1="416.564" y1="307.072" x2="383.663" y2="342.62" gradientUnits="userSpaceOnUse">
<stop stop-color="#FFC444"/>
<stop offset="0.9964" stop-color="#F36F56"/>
</linearGradient>
<linearGradient id="paint4_linear" x1="926.414" y1="374.987" x2="876.808" y2="428.585" gradientUnits="userSpaceOnUse">
<stop stop-color="#FFC444"/>
<stop offset="0.9964" stop-color="#F36F56"/>
</linearGradient>
<linearGradient id="paint5_linear" x1="810.409" y1="1131.62" x2="810.409" y2="1077.1" gradientUnits="userSpaceOnUse">
<stop stop-color="#FFC444"/>
<stop offset="0.9964" stop-color="#F36F56"/>
</linearGradient>
<linearGradient id="paint6_linear" x1="644.232" y1="1147.15" x2="644.232" y2="1081.45" gradientUnits="userSpaceOnUse">
<stop stop-color="#FFC444"/>
<stop offset="0.9964" stop-color="#F36F56"/>
</linearGradient>
<linearGradient id="paint7_linear" x1="607.476" y1="889.059" x2="822.431" y2="889.059" gradientUnits="userSpaceOnUse">
<stop stop-color="#311944"/>
<stop offset="1" stop-color="#893976"/>
</linearGradient>
<linearGradient id="paint8_linear" x1="748.34" y1="393.579" x2="706.034" y2="462.015" gradientUnits="userSpaceOnUse">
<stop stop-color="#FFC444"/>
<stop offset="0.9964" stop-color="#F36F56"/>
</linearGradient>
<linearGradient id="paint9_linear" x1="721.421" y1="395.443" x2="784.85" y2="395.443" gradientUnits="userSpaceOnUse">
<stop stop-color="#311944"/>
<stop offset="1" stop-color="#6B3976"/>
</linearGradient>
<linearGradient id="paint10_linear" x1="733.186" y1="384.311" x2="709.038" y2="458.336" gradientUnits="userSpaceOnUse">
<stop stop-color="#FFC444"/>
<stop offset="0.9964" stop-color="#F36F56"/>
</linearGradient>
<linearGradient id="paint11_linear" x1="703.935" y1="403.359" x2="740.444" y2="461.386" gradientUnits="userSpaceOnUse">
<stop offset="0.0036" stop-color="#E38DDD"/>
<stop offset="1" stop-color="#9571F6"/>
</linearGradient>
</defs>
</svg>
