<svg width="1334" height="1305" viewBox="0 0 1334 1305" fill="none" xmlns="http://www.w3.org/2000/svg">
<path opacity="0.03" d="M732.017 424.956C868.44 612.093 1099.17 839.759 1021.35 956.345C978.27 1020.89 488.016 803.232 349.734 650.121C219.593 506.025 146.988 160.123 263.423 90.9841C392.349 14.4279 587.839 227.181 732.017 424.956Z" fill="url(#paint0_linear)"/>
<path opacity="0.03" d="M1189.31 460.5C1189.31 688.87 1243.49 1046 1114.81 1046C986.126 1046 717.309 786.37 717.309 558C717.309 329.63 705.126 68 833.808 68C962.491 68 1189.31 232.13 1189.31 460.5Z" fill="url(#paint1_linear)"/>
<path opacity="0.03" d="M21.8215 515.923C-39.8171 851.554 505.82 1079.16 728.791 1131.24C951.762 1183.32 1067 964.949 1067 722.697C1067 480.445 804.365 668.33 573.89 629.257C341.22 629.257 112.404 244.523 21.8215 515.923Z" fill="url(#paint2_linear)"/>
<path opacity="0.2" d="M664.32 1173.6C771.245 1166.94 793.316 1179.82 902.1 1177.29C1009.11 1174.81 1016.45 1161.67 1103.86 1164.36C1182.45 1166.78 1283.64 1180.69 1284 1195.77C1284.4 1212.37 1162.76 1235.71 1046.21 1227.18C981.363 1222.44 986.5 1237 924.38 1232.93C811.842 1225.54 778.102 1231.8 664.325 1225.34C598.492 1221.59 529.763 1206.85 531.017 1195.78C532.599 1181.81 645.267 1174.79 664.32 1173.6Z" fill="#D0E0E7"/>
<path d="M1234.15 689.801C1234.15 689.801 1297.98 725.161 1303.26 785.001C1308.54 844.842 1303.7 1093.21 1175.71 1154.34C1047.72 1215.48 878.312 1201.38 813.463 1194.7C748.614 1188.02 712.658 1143.95 704.626 1113.6C696.594 1083.26 683.621 970.222 751.842 933.762C820.059 897.301 891.708 841.438 963.303 787.047C1034.9 732.652 1157.6 643.858 1234.15 689.801Z" fill="url(#paint3_linear)"/>
<path d="M771.958 954.389C771.958 954.389 789.186 955.302 791.299 990.742C791.299 990.742 751.352 1026.55 697.395 1035.07C693.343 1035.72 703.057 1007.42 704.519 1003.59C711.466 985.353 733.347 973.61 771.958 954.389Z" fill="black"/>
<path d="M965.965 912.719H948.672C936.701 912.719 925.26 907.885 916.928 899.291C888.294 869.743 816.723 800.186 760.152 781.019C750.947 777.901 740.899 782.326 736.775 791.126C724.967 816.322 708.397 874.963 747.635 963.711C751.981 973.546 764.317 977.726 773.254 971.754C775.795 970.056 777.635 967.812 778.768 965.026L774.454 861.291C774.454 861.291 869.627 944.53 886.172 960.594C902.71 976.66 986.798 966.869 965.965 912.719Z" fill="#282F31"/>
<path d="M614.515 1171.43C629.749 1158.09 654.023 1143.11 689.062 1138.81L700.912 1146.06C700.912 1146.06 693.357 1157.2 679.551 1168.98C666.865 1176.35 647.272 1186.33 631.031 1188.49C615.241 1190.59 612.914 1181.05 614.515 1171.43Z" fill="black"/>
<path d="M964.289 938.563L794.055 940.406C794.055 940.406 696.838 1020.84 679.205 1143.48C679.205 1143.48 676.278 1152.5 693.849 1154.05C693.849 1154.05 752.627 1115.66 790.954 1047.79C837.944 964.571 931.042 1002.03 931.042 1002.03C961.632 979.978 1004.86 975.484 1037.42 968.141L964.289 938.563Z" fill="#282F31"/>
<path d="M950.795 937.517C950.795 937.517 971.634 880.871 976.112 825.824C976.112 825.824 960.868 812.72 951.339 807.072C948.254 805.237 947.086 801.365 948.647 798.138C955.653 783.622 998.024 726.634 1001.2 725.841C1018.45 721.537 1089.19 687.897 1139.02 756.053C1160.41 785.304 1134.78 875.349 1037.76 968.596L1017.75 972.424L950.795 937.517Z" fill="url(#paint4_linear)"/>
<path d="M1064.87 677.76L1077.54 720.01C1078.12 721.949 1077.4 724.044 1075.73 725.187C1069.64 729.365 1053.69 737.673 1031.83 729.595C1029.32 728.674 1027.61 726.336 1027.39 723.679L1024.39 686.871L1064.87 677.76Z" fill="url(#paint5_linear)"/>
<path d="M990.691 643.54C990.691 643.54 996.918 687.338 1013.74 700.809C1030.57 714.28 1063.35 704.138 1074.42 671.117L1052.36 614.661L990.691 643.54Z" fill="url(#paint6_linear)"/>
<path d="M1054.85 651.191C1053.57 651.604 1052.22 650.784 1052.03 649.456C1051.42 645.412 1049.9 637.412 1046.83 631.962C1046.83 631.962 1048.44 626.215 1032.31 634.897C1016.18 643.577 991.961 656.331 977.694 648.735C963.792 641.333 949.705 604.075 986.454 610.976C987.85 611.241 989.138 610.127 989.034 608.705C988.581 602.583 989.189 588.493 1003.46 583.972C1016.81 579.741 1024.12 585.767 1027.13 589.404C1028.01 590.472 1029.66 590.454 1030.5 589.347C1034.5 584.128 1045.37 573.013 1061.35 580.06C1074.52 585.863 1076.57 593.975 1076.35 599.029C1076.28 600.665 1077.95 601.777 1079.43 601.094C1083.47 599.235 1089.95 598.271 1096.17 606.056C1104.76 616.823 1092.49 626.159 1088.8 628.606C1088.19 629.005 1087.82 629.67 1087.82 630.395C1087.78 635.993 1086.91 660.415 1074.67 674.189C1073.61 675.38 1071.65 675.029 1071.04 673.562L1061.61 651.108C1061.18 650.064 1060.01 649.531 1058.94 649.876L1054.85 651.191Z" fill="url(#paint7_linear)"/>
<path d="M1054.65 655.752C1054.65 655.752 1060.4 632.313 1069.14 639.924C1077.89 647.532 1066.86 664.282 1056.85 667.474L1054.65 655.752Z" fill="url(#paint8_linear)"/>
<path d="M976.112 827.165C975.376 827.165 974.776 826.568 974.773 825.831C974.69 800.236 984.532 766.393 984.631 766.055C984.838 765.348 985.574 764.928 986.292 765.147C987.001 765.354 987.409 766.101 987.2 766.808C987.103 767.143 977.371 800.622 977.451 825.821C977.454 826.56 976.854 827.162 976.117 827.165C976.115 827.165 976.115 827.165 976.112 827.165Z" fill="url(#paint9_linear)"/>
<path d="M1031.1 839.578C1030.81 839.578 1030.51 839.484 1030.27 839.291C1029.68 838.833 1029.59 837.992 1030.04 837.411C1030.31 837.079 1056.54 803.725 1065.51 781.004C1065.78 780.316 1066.56 779.973 1067.25 780.251C1067.93 780.524 1068.27 781.301 1068 781.987C1058.89 805.075 1032.41 838.731 1032.14 839.066C1031.88 839.401 1031.49 839.578 1031.1 839.578Z" fill="url(#paint10_linear)"/>
<path d="M1068.17 891.064L1063.16 883.975C1062.73 883.369 1062.87 882.534 1063.48 882.108C1064.08 881.682 1064.91 881.824 1065.34 882.427L1069.1 887.743C1106 871.336 1128.86 827.182 1129.09 826.732C1129.42 826.073 1130.23 825.813 1130.89 826.148C1131.54 826.483 1131.81 827.292 1131.47 827.95C1131.24 828.411 1107.55 874.205 1069.17 890.64L1068.17 891.064Z" fill="url(#paint11_linear)"/>
<path d="M952.816 801.389C952.816 801.389 924.856 881.912 870.367 820.626L865.179 818.322L826.121 791.624L830.473 807.085C832.878 815.631 839.083 822.599 847.295 825.979L852.439 828.098C862.228 848.446 883.211 879.285 915.52 885.134C964.008 893.913 988.88 828.4 988.88 828.4L952.816 801.389Z" fill="url(#paint12_linear)"/>
<path d="M806.638 771.067L803.901 774.816C802.57 776.643 803.009 779.203 804.873 780.475L866.401 822.503C868.032 823.617 870.231 823.376 871.578 821.936C873.185 820.216 872.97 817.495 871.114 816.049L812.326 770.266C810.543 768.879 807.972 769.243 806.638 771.067Z" fill="url(#paint13_linear)"/>
<path d="M862.186 809.867C861.412 809.19 909.731 785.539 927.924 787.706C945.64 789.813 966.481 803.051 985.914 818.743C1003.41 832.867 1021.4 841.981 1038.29 841.277C1038.29 841.277 1067.18 872.697 1060.78 891.65C1060.78 891.65 1028.7 899.229 1001.31 872.185C975.268 846.472 946.515 813.702 930.334 807.73C928.976 807.227 927.49 807.406 926.269 808.185C921.408 811.279 906.239 818.711 886.375 806.836C886.378 806.833 870.218 816.892 862.186 809.867Z" fill="url(#paint14_linear)"/>
<g filter="url(#filter0_d)">
<path d="M873.201 685.493C874.315 694.036 876.661 710.483 879.383 720.7C880.033 723.145 882.15 724.899 884.655 725.083C892.602 725.67 910.341 726.391 920.687 722.286C923.025 721.361 924.48 719.003 924.363 716.47C924.004 708.557 922.997 690.186 920.976 679.193C920.418 676.153 917.66 674.061 914.61 674.344C906.209 675.13 889.313 676.835 878.062 678.822C874.927 679.375 872.784 682.305 873.201 685.493Z" fill="url(#paint15_linear)"/>
</g>
<g filter="url(#filter1_d)">
<path d="M657.553 524.775C660.124 544.489 665.538 582.444 671.818 606.023C673.318 611.664 678.205 615.711 683.984 616.137C702.324 617.492 743.26 619.156 767.135 609.682C772.53 607.546 775.888 602.106 775.619 596.259C774.79 577.999 772.465 535.604 767.802 510.236C766.514 503.22 760.151 498.392 753.111 499.047C733.725 500.86 694.734 504.795 668.77 509.38C661.536 510.656 656.59 517.419 657.553 524.775Z" fill="url(#paint16_linear)"/>
</g>
<g filter="url(#filter2_d)">
<path d="M309.132 189.53C317.657 254.914 335.614 380.798 356.442 459.001C361.419 477.711 377.625 491.135 396.795 492.545C457.622 497.041 593.394 502.558 672.577 471.138C690.472 464.054 701.608 446.011 700.717 426.619C697.967 366.057 690.257 225.447 674.789 141.307C670.518 118.04 649.413 102.026 626.065 104.197C561.766 110.211 432.446 123.263 346.335 138.469C322.342 142.701 305.937 165.131 309.132 189.53Z" fill="url(#paint17_linear)"/>
</g>
<g filter="url(#filter3_d)">
<path d="M354.58 594.482L371.714 707.919C375.533 733.534 399.632 751.299 425.69 747.74L560.879 729.344C586.227 725.885 604.376 703.429 602.078 678.346L593.358 583.305C591.162 559.02 570.409 540.357 545.602 540.357H402.032C372.729 540.357 350.288 565.94 354.58 594.482Z" fill="url(#paint18_linear)"/>
</g>
<g filter="url(#filter4_d)">
<path d="M89.4814 321.883L221.028 307.103C250.717 303.71 277.714 325.264 281.528 355.369L301.399 511.535C305.113 540.82 285.505 567.753 256.863 572.683L148.332 591.348C120.61 596.151 93.6124 578.596 86.204 550.947L43.3283 390.933C34.5775 358.275 56.388 325.623 89.4814 321.883Z" fill="url(#paint19_linear)"/>
</g>
<g filter="url(#filter5_d)">
<path d="M797.466 612.059L802.701 652.918C803.868 662.144 811.232 668.543 819.194 667.26L860.502 660.635C868.247 659.388 873.792 651.3 873.09 642.266L870.426 608.033C869.755 599.286 863.414 592.563 855.834 592.563H811.965C803.011 592.563 796.154 601.778 797.466 612.059Z" fill="url(#paint20_linear)"/>
</g>
<g filter="url(#filter6_d)">
<path d="M851.585 732.416L853.417 742.701C854.125 746.679 858.109 749.107 861.884 747.87L868.597 745.666C871.508 744.711 873.383 741.842 873.125 738.742L872.288 728.703C871.946 724.606 868.08 721.788 864.16 722.786L856.452 724.744C853.097 725.594 850.967 728.952 851.585 732.416Z" fill="url(#paint21_linear)"/>
</g>
<circle cx="719" cy="561" r="21" fill="url(#paint22_linear)"/>
<g filter="url(#filter7_d)">
<path d="M500.24 662.058L392.055 669.734L381.879 647.221C381.879 647.221 415.042 631.006 448.194 631.802C466.142 615.279 474.597 610.592 474.597 610.592C474.597 610.592 517.004 605.21 525.644 607.834C538.464 614.494 552.771 621.997 552.771 621.997L577.839 623.456L571.289 654.816L500.24 662.058Z" fill="url(#paint23_linear)"/>
<path d="M429.544 676.027C438.445 675.381 445.145 667.75 444.508 658.985C443.871 650.219 436.139 643.637 427.238 644.283C418.337 644.93 411.637 652.56 412.274 661.326C412.911 670.092 420.643 676.674 429.544 676.027Z" fill="#282F31"/>
<path d="M549.091 667.592C557.992 666.945 564.692 659.315 564.055 650.549C563.418 641.783 555.686 635.201 546.785 635.848C537.884 636.494 531.184 644.125 531.821 652.89C532.458 661.656 540.19 668.238 549.091 667.592Z" fill="#282F31"/>
<path d="M429.438 670.672C435.236 670.251 439.596 665.209 439.174 659.411C438.753 653.612 433.711 649.253 427.912 649.674C422.114 650.095 417.755 655.137 418.176 660.936C418.597 666.734 423.639 671.094 429.438 670.672Z" fill="#D0E0E7"/>
<path d="M548.984 661.928C554.783 661.507 559.142 656.464 558.721 650.665C558.3 644.866 553.257 640.506 547.458 640.928C541.659 641.349 537.299 646.392 537.721 652.191C538.142 657.99 543.184 662.349 548.984 661.928Z" fill="#D0E0E7"/>
</g>
<g filter="url(#filter8_d)">
<path d="M459.205 335.023C459.173 334.114 459.12 333.202 459.023 332.284C458.114 323.667 454.479 315.985 449.072 309.979L425.824 330.195C426.551 331.057 427.111 332.066 427.457 333.181L459.205 335.023Z" fill="#333333"/>
<path d="M463.918 335.296L470.989 335.707C470.966 334.165 470.884 332.611 470.72 331.049C469.546 319.927 464.884 310.021 457.942 302.264L452.612 306.899C458.638 313.607 462.687 322.176 463.701 331.791C463.825 332.966 463.887 334.133 463.918 335.296Z" fill="#333333"/>
<path d="M415.076 296.922C393.145 299.236 377.175 318.863 379.476 340.676C381.778 362.489 401.492 378.352 423.423 376.038C442.424 374.033 456.941 359.03 458.986 340.871L427.191 339.025C426.014 341.857 423.354 343.976 420.077 344.322C415.312 344.824 411.044 341.391 410.544 336.653C410.044 331.913 413.501 327.664 418.266 327.161C418.973 327.086 419.666 327.108 420.339 327.198L444.826 305.906C436.815 299.281 426.235 295.745 415.076 296.922Z" fill="#333333"/>
<path d="M423.913 380.691C399.402 383.277 377.368 365.548 374.796 341.169C372.224 316.791 390.073 294.854 414.584 292.268C427.325 290.924 439.388 295.078 448.404 302.791L453.789 298.108C443.279 288.755 428.984 283.69 413.847 285.287C385.42 288.287 364.794 313.637 367.777 341.91C370.76 370.182 396.222 390.671 424.648 387.672C449.495 385.051 468.38 365.354 470.752 341.554L463.69 341.143C461.507 361.548 445.234 378.442 423.913 380.691Z" fill="#333333"/>
<path d="M459.205 335.023L463.919 335.297C463.889 334.134 463.826 332.967 463.702 331.791C462.687 322.176 458.638 313.607 452.613 306.898L449.072 309.979C454.479 315.985 458.114 323.667 459.023 332.284C459.12 333.203 459.173 334.114 459.205 335.023Z" fill="#E5E5E4"/>
<path d="M414.585 292.267C390.074 294.853 372.225 316.79 374.797 341.169C377.369 365.547 399.403 383.277 423.914 380.691C445.236 378.441 461.508 361.547 463.692 341.142L458.986 340.87C456.941 359.029 442.424 374.032 423.423 376.037C401.492 378.351 381.778 362.488 379.476 340.675C377.175 318.862 393.145 299.235 415.076 296.921C426.236 295.743 436.816 299.28 444.826 305.904L448.406 302.79C439.389 295.076 427.326 290.923 414.585 292.267Z" fill="#D0E0E7"/>
<path d="M594.893 266.186C587.062 267.012 579.827 269.541 573.51 273.355L576.703 279.651C582.268 276.193 588.68 273.9 595.63 273.166C620.141 270.58 642.175 288.31 644.747 312.688C647.319 337.067 629.469 359.004 604.959 361.59C580.449 364.176 558.414 346.446 555.842 322.068C554.221 306.703 560.717 292.314 571.874 283.121L568.62 276.704C554.936 287.275 546.884 304.419 548.824 322.808C551.807 351.08 577.27 371.569 605.696 368.57C634.123 365.571 654.748 340.219 651.765 311.948C648.782 283.674 623.32 263.187 594.893 266.186Z" fill="#333333"/>
<path d="M560.521 321.574C562.823 343.388 582.537 359.25 604.468 356.936C626.399 354.623 642.369 334.995 640.068 313.182C637.766 291.369 618.052 275.507 596.121 277.82C589.754 278.492 583.895 280.629 578.835 283.851L586.127 298.231L597.618 309.175C598.183 308.992 598.775 308.863 599.39 308.798C604.155 308.295 608.423 311.728 608.923 316.468C609.423 321.206 605.966 325.456 601.201 325.959C596.436 326.461 592.168 323.027 591.668 318.288C591.458 316.299 591.953 314.4 592.941 312.823L581.329 301.765L581.101 301.319L574.054 287.42C564.572 295.665 559.111 308.205 560.521 321.574Z" fill="#333333"/>
<path d="M596.122 277.82C618.053 275.506 637.767 291.369 640.069 313.182C642.37 334.995 626.4 354.623 604.469 356.936C582.538 359.25 562.823 343.388 560.522 321.574C559.112 308.205 564.573 295.665 574.055 287.42L571.875 283.121C560.718 292.314 554.222 306.703 555.843 322.068C558.415 346.446 580.449 364.176 604.96 361.59C629.471 359.004 647.32 337.067 644.748 312.688C642.176 288.31 620.141 270.581 595.631 273.167C588.681 273.9 582.27 276.193 576.704 279.651L578.834 283.851C583.896 280.629 589.755 278.492 596.122 277.82Z" fill="#D0E0E7"/>
<path d="M485.411 336.544L470.988 335.707L463.918 335.296L459.204 335.023L427.456 333.18C427.62 333.71 427.737 334.26 427.798 334.832C427.954 336.309 427.724 337.741 427.19 339.025L458.985 340.871L463.69 341.143L470.753 341.554L485.893 342.433C485.613 341.592 485.414 340.711 485.317 339.794C485.2 338.684 485.246 337.596 485.411 336.544Z" fill="url(#paint24_linear)"/>
<path d="M574.054 287.419L581.102 301.318L581.329 301.764L592.941 312.823C594.004 311.13 595.64 309.813 597.618 309.173L586.127 298.229L578.835 283.849L576.705 279.649L573.512 273.353L553.205 233.31L557.8 227.308C560.246 224.112 560.568 219.779 558.615 216.265C557.093 213.525 554.325 211.616 551.214 211.155L547.551 210.611C546.7 210.486 545.833 210.467 544.975 210.558L529.224 212.22C527.608 212.39 526.437 213.83 526.606 215.437C526.776 217.043 528.223 218.207 529.838 218.037L545.589 216.375C545.951 216.337 546.316 216.344 546.679 216.398L550.34 216.941C551.655 217.136 552.823 217.943 553.466 219.1C554.292 220.582 554.155 222.416 553.12 223.766L547.858 230.64C546.908 231.877 546.75 233.577 547.454 234.967L553.193 246.285C553.132 246.309 553.07 246.322 553.009 246.348L472.725 281.831L457.165 250.098C457.08 250.109 456.996 250.133 456.91 250.142L451.325 250.731C451.197 250.745 451.069 250.748 450.942 250.757L468.069 285.686L453.789 298.104L448.404 302.788L444.823 305.901L420.337 327.194C422.507 327.483 424.455 328.571 425.822 330.192L449.069 309.975L452.61 306.894L457.94 302.26L470.737 291.13L489.393 329.176C490.836 327.866 492.589 326.885 494.552 326.348L475.328 287.14L475.465 287.021L550.023 254.067L503.084 326.998C504.904 327.815 506.505 329.045 507.754 330.589L557.078 253.95L568.616 276.702L571.871 283.119L574.054 287.419Z" fill="url(#paint25_linear)"/>
<path d="M456.912 250.145C456.998 250.136 457.082 250.112 457.167 250.101C458.404 249.949 459.624 249.67 460.794 249.235L468.727 246.288C468.822 246.253 468.918 246.232 469.017 246.221L469.506 246.169C471.51 245.958 473.114 244.562 473.589 242.611C474.061 240.662 473.281 238.694 471.594 237.598C470.69 237.01 469.599 236.747 468.525 236.861L449.796 238.837C448.81 238.941 447.813 238.915 446.83 238.756L437.934 237.322C435.631 236.952 433.347 237.982 432.11 239.947C431.093 241.566 430.949 243.573 431.723 245.318C432.5 247.063 434.09 248.305 435.981 248.641L446.858 250.576C448.207 250.816 449.579 250.872 450.944 250.76C451.071 250.751 451.2 250.748 451.327 250.734L456.912 250.145Z" fill="#282F31"/>
<path d="M503.087 327.001C501.112 326.117 498.887 325.713 496.575 325.957C495.879 326.031 495.208 326.173 494.554 326.351C492.59 326.887 490.838 327.87 489.395 329.18C487.293 331.087 485.86 333.67 485.411 336.544C485.247 337.597 485.201 338.684 485.318 339.793C485.415 340.711 485.614 341.592 485.894 342.433C487.718 347.928 493.191 351.613 499.216 350.977C506.162 350.244 511.203 344.048 510.474 337.139C510.211 334.647 509.226 332.41 507.757 330.593C506.508 329.049 504.906 327.818 503.087 327.001Z" fill="#282F31"/>
<path d="M410.544 336.652C411.044 341.39 415.312 344.824 420.077 344.321C423.355 343.975 426.015 341.856 427.191 339.025C427.725 337.739 427.955 336.309 427.799 334.831C427.738 334.259 427.621 333.708 427.457 333.179C427.111 332.066 426.551 331.056 425.824 330.194C424.457 328.575 422.509 327.486 420.339 327.196C419.666 327.106 418.973 327.085 418.266 327.159C413.501 327.663 410.044 331.913 410.544 336.652Z" fill="#E5E5E4"/>
<path d="M601.199 325.959C605.963 325.456 609.42 321.206 608.921 316.468C608.421 311.728 604.153 308.295 599.388 308.798C598.773 308.863 598.181 308.992 597.616 309.175C595.638 309.813 594.002 311.13 592.939 312.824C591.95 314.4 591.456 316.299 591.666 318.289C592.166 323.027 596.434 326.461 601.199 325.959Z" fill="#E5E5E4"/>
</g>
<g filter="url(#filter9_d)">
<path d="M170.551 454.01L141.812 403.022L108.438 447.522L112.146 500.364L165.166 511.944L247.497 487.385L250.278 438.252L170.551 454.01Z" fill="#D0E0E7"/>
<path d="M108.538 448.845L141.812 403.022L170.551 454.01L260.476 436.397L232.665 390.971L138.103 399.314L102.876 446.594L108.538 448.845Z" fill="url(#paint26_linear)"/>
<path d="M196.273 406.512L197.201 379.627L212.033 376.847L225.939 379.627L226.865 413.002L203.691 416.71L196.273 406.512Z" fill="#707070"/>
<path d="M130.38 496.572L129.643 461.309L152.818 464.089L150.965 501.172L130.38 496.572Z" fill="black" fill-opacity="0.5"/>
</g>
<defs>
<filter id="filter0_d" x="869.149" y="674.318" width="59.2203" height="59.2203" filterUnits="userSpaceOnUse" color-interpolation-filters="sRGB">
<feFlood flood-opacity="0" result="BackgroundImageFix"/>
<feColorMatrix in="SourceAlpha" type="matrix" values="0 0 0 0 0 0 0 0 0 0 0 0 0 0 0 0 0 0 127 0"/>
<feOffset dy="4"/>
<feGaussianBlur stdDeviation="2"/>
<feColorMatrix type="matrix" values="0 0 0 0 0 0 0 0 0 0 0 0 0 0 0 0 0 0 0.25 0"/>
<feBlend mode="normal" in2="BackgroundImageFix" result="effect1_dropShadow"/>
<feBlend mode="normal" in="SourceGraphic" in2="effect1_dropShadow" result="shape"/>
</filter>
<filter id="filter1_d" x="653.434" y="498.987" width="126.201" height="126.201" filterUnits="userSpaceOnUse" color-interpolation-filters="sRGB">
<feFlood flood-opacity="0" result="BackgroundImageFix"/>
<feColorMatrix in="SourceAlpha" type="matrix" values="0 0 0 0 0 0 0 0 0 0 0 0 0 0 0 0 0 0 127 0"/>
<feOffset dy="4"/>
<feGaussianBlur stdDeviation="2"/>
<feColorMatrix type="matrix" values="0 0 0 0 0 0 0 0 0 0 0 0 0 0 0 0 0 0 0.25 0"/>
<feBlend mode="normal" in2="BackgroundImageFix" result="effect1_dropShadow"/>
<feBlend mode="normal" in="SourceGraphic" in2="effect1_dropShadow" result="shape"/>
</filter>
<filter id="filter2_d" x="304.734" y="104" width="400.032" height="400.032" filterUnits="userSpaceOnUse" color-interpolation-filters="sRGB">
<feFlood flood-opacity="0" result="BackgroundImageFix"/>
<feColorMatrix in="SourceAlpha" type="matrix" values="0 0 0 0 0 0 0 0 0 0 0 0 0 0 0 0 0 0 127 0"/>
<feOffset dy="4"/>
<feGaussianBlur stdDeviation="2"/>
<feColorMatrix type="matrix" values="0 0 0 0 0 0 0 0 0 0 0 0 0 0 0 0 0 0 0.25 0"/>
<feBlend mode="normal" in2="BackgroundImageFix" result="effect1_dropShadow"/>
<feBlend mode="normal" in="SourceGraphic" in2="effect1_dropShadow" result="shape"/>
</filter>
<filter id="filter3_d" x="350.053" y="540.357" width="256.221" height="215.836" filterUnits="userSpaceOnUse" color-interpolation-filters="sRGB">
<feFlood flood-opacity="0" result="BackgroundImageFix"/>
<feColorMatrix in="SourceAlpha" type="matrix" values="0 0 0 0 0 0 0 0 0 0 0 0 0 0 0 0 0 0 127 0"/>
<feOffset dy="4"/>
<feGaussianBlur stdDeviation="2"/>
<feColorMatrix type="matrix" values="0 0 0 0 0 0 0 0 0 0 0 0 0 0 0 0 0 0 0.25 0"/>
<feBlend mode="normal" in2="BackgroundImageFix" result="effect1_dropShadow"/>
<feBlend mode="normal" in="SourceGraphic" in2="effect1_dropShadow" result="shape"/>
</filter>
<filter id="filter4_d" x="25" y="275.391" width="313.769" height="346.719" filterUnits="userSpaceOnUse" color-interpolation-filters="sRGB">
<feFlood flood-opacity="0" result="BackgroundImageFix"/>
<feColorMatrix in="SourceAlpha" type="matrix" values="0 0 0 0 0 0 0 0 0 0 0 0 0 0 0 0 0 0 127 0"/>
<feOffset dy="4"/>
<feGaussianBlur stdDeviation="2"/>
<feColorMatrix type="matrix" values="0 0 0 0 0 0 0 0 0 0 0 0 0 0 0 0 0 0 0.25 0"/>
<feBlend mode="normal" in2="BackgroundImageFix" result="effect1_dropShadow"/>
<feBlend mode="normal" in="SourceGraphic" in2="effect1_dropShadow" result="shape"/>
</filter>
<filter id="filter5_d" x="793.305" y="592.563" width="83.8455" height="82.8605" filterUnits="userSpaceOnUse" color-interpolation-filters="sRGB">
<feFlood flood-opacity="0" result="BackgroundImageFix"/>
<feColorMatrix in="SourceAlpha" type="matrix" values="0 0 0 0 0 0 0 0 0 0 0 0 0 0 0 0 0 0 127 0"/>
<feOffset dy="4"/>
<feGaussianBlur stdDeviation="2"/>
<feColorMatrix type="matrix" values="0 0 0 0 0 0 0 0 0 0 0 0 0 0 0 0 0 0 0.25 0"/>
<feBlend mode="normal" in2="BackgroundImageFix" result="effect1_dropShadow"/>
<feBlend mode="normal" in="SourceGraphic" in2="effect1_dropShadow" result="shape"/>
</filter>
<filter id="filter6_d" x="847.479" y="722.584" width="29.6701" height="33.6102" filterUnits="userSpaceOnUse" color-interpolation-filters="sRGB">
<feFlood flood-opacity="0" result="BackgroundImageFix"/>
<feColorMatrix in="SourceAlpha" type="matrix" values="0 0 0 0 0 0 0 0 0 0 0 0 0 0 0 0 0 0 127 0"/>
<feOffset dy="4"/>
<feGaussianBlur stdDeviation="2"/>
<feColorMatrix type="matrix" values="0 0 0 0 0 0 0 0 0 0 0 0 0 0 0 0 0 0 0.25 0"/>
<feBlend mode="normal" in2="BackgroundImageFix" result="effect1_dropShadow"/>
<feBlend mode="normal" in="SourceGraphic" in2="effect1_dropShadow" result="shape"/>
</filter>
<filter id="filter7_d" x="375.662" y="602.413" width="208.559" height="82.7845" filterUnits="userSpaceOnUse" color-interpolation-filters="sRGB">
<feFlood flood-opacity="0" result="BackgroundImageFix"/>
<feColorMatrix in="SourceAlpha" type="matrix" values="0 0 0 0 0 0 0 0 0 0 0 0 0 0 0 0 0 0 127 0"/>
<feOffset dy="4"/>
<feGaussianBlur stdDeviation="2"/>
<feColorMatrix type="matrix" values="0 0 0 0 0 0 0 0 0 0 0 0 0 0 0 0 0 0 0.1 0"/>
<feBlend mode="normal" in2="BackgroundImageFix" result="effect1_dropShadow"/>
<feBlend mode="normal" in="SourceGraphic" in2="effect1_dropShadow" result="shape"/>
</filter>
<filter id="filter8_d" x="358.376" y="206.15" width="302.79" height="194.952" filterUnits="userSpaceOnUse" color-interpolation-filters="sRGB">
<feFlood flood-opacity="0" result="BackgroundImageFix"/>
<feColorMatrix in="SourceAlpha" type="matrix" values="0 0 0 0 0 0 0 0 0 0 0 0 0 0 0 0 0 0 127 0"/>
<feOffset dy="4"/>
<feGaussianBlur stdDeviation="2"/>
<feColorMatrix type="matrix" values="0 0 0 0 0 0 0 0 0 0 0 0 0 0 0 0 0 0 0.1 0"/>
<feBlend mode="normal" in2="BackgroundImageFix" result="effect1_dropShadow"/>
<feBlend mode="normal" in="SourceGraphic" in2="effect1_dropShadow" result="shape"/>
</filter>
<filter id="filter9_d" x="98.876" y="376.847" width="165.6" height="143.097" filterUnits="userSpaceOnUse" color-interpolation-filters="sRGB">
<feFlood flood-opacity="0" result="BackgroundImageFix"/>
<feColorMatrix in="SourceAlpha" type="matrix" values="0 0 0 0 0 0 0 0 0 0 0 0 0 0 0 0 0 0 127 0"/>
<feOffset dy="4"/>
<feGaussianBlur stdDeviation="2"/>
<feColorMatrix type="matrix" values="0 0 0 0 0 0 0 0 0 0 0 0 0 0 0 0 0 0 0.1 0"/>
<feBlend mode="normal" in2="BackgroundImageFix" result="effect1_dropShadow"/>
<feBlend mode="normal" in="SourceGraphic" in2="effect1_dropShadow" result="shape"/>
</filter>
<linearGradient id="paint0_linear" x1="1037" y1="968" x2="146.231" y2="138.078" gradientUnits="userSpaceOnUse">
<stop stop-color="#130FFF"/>
<stop offset="1" stop-color="#1CA3FF"/>
</linearGradient>
<linearGradient id="paint1_linear" x1="1200.63" y1="1046" x2="423.427" y2="661.664" gradientUnits="userSpaceOnUse">
<stop stop-color="#130FFF"/>
<stop offset="1" stop-color="#1CA3FF"/>
</linearGradient>
<linearGradient id="paint2_linear" x1="17" y1="1139" x2="688.627" y2="159.544" gradientUnits="userSpaceOnUse">
<stop stop-color="#130FFF"/>
<stop offset="1" stop-color="#1CA3FF"/>
</linearGradient>
<linearGradient id="paint3_linear" x1="919" y1="898.5" x2="1367.5" y2="1333" gradientUnits="userSpaceOnUse">
<stop stop-color="#D0E0E7"/>
<stop offset="0.865643" stop-color="#9EB6C1"/>
</linearGradient>
<linearGradient id="paint4_linear" x1="1146.05" y1="972.424" x2="896.328" y2="781.174" gradientUnits="userSpaceOnUse">
<stop stop-color="#130FFF"/>
<stop offset="1" stop-color="#1CA3FF"/>
</linearGradient>
<linearGradient id="paint5_linear" x1="1054.13" y1="736.417" x2="1048.22" y2="683.276" gradientUnits="userSpaceOnUse">
<stop stop-color="#F9B776"/>
<stop offset="1" stop-color="#F47960"/>
</linearGradient>
<linearGradient id="paint6_linear" x1="1022.63" y1="690.063" x2="1048.66" y2="604.226" gradientUnits="userSpaceOnUse">
<stop stop-color="#F9B776"/>
<stop offset="1" stop-color="#F47960"/>
</linearGradient>
<linearGradient id="paint7_linear" x1="1046.12" y1="532.452" x2="1021.92" y2="670.458" gradientUnits="userSpaceOnUse">
<stop stop-color="#2B3582"/>
<stop offset="1" stop-color="#150E42"/>
</linearGradient>
<linearGradient id="paint8_linear" x1="1049.59" y1="698.233" x2="1075.61" y2="612.399" gradientUnits="userSpaceOnUse">
<stop stop-color="#F9B776"/>
<stop offset="1" stop-color="#F47960"/>
</linearGradient>
<linearGradient id="paint9_linear" x1="987.254" y1="827.165" x2="963.261" y2="822.341" gradientUnits="userSpaceOnUse">
<stop stop-color="#130FFF"/>
<stop offset="1" stop-color="#1CA3FF"/>
</linearGradient>
<linearGradient id="paint10_linear" x1="1068.09" y1="839.578" x2="1013.95" y2="804.649" gradientUnits="userSpaceOnUse">
<stop stop-color="#130FFF"/>
<stop offset="1" stop-color="#1CA3FF"/>
</linearGradient>
<linearGradient id="paint11_linear" x1="1131.62" y1="891.064" x2="1066.65" y2="822.459" gradientUnits="userSpaceOnUse">
<stop stop-color="#130FFF"/>
<stop offset="1" stop-color="#1CA3FF"/>
</linearGradient>
<linearGradient id="paint12_linear" x1="826.121" y1="838.783" x2="988.879" y2="838.783" gradientUnits="userSpaceOnUse">
<stop stop-color="#F9B776"/>
<stop offset="1" stop-color="#F47960"/>
</linearGradient>
<linearGradient id="paint13_linear" x1="803.132" y1="796.314" x2="872.654" y2="796.314" gradientUnits="userSpaceOnUse">
<stop stop-color="#2B3582"/>
<stop offset="1" stop-color="#150E42"/>
</linearGradient>
<linearGradient id="paint14_linear" x1="979.969" y1="783.854" x2="933.549" y2="951.924" gradientUnits="userSpaceOnUse">
<stop stop-color="#F9B776"/>
<stop offset="1" stop-color="#F47960"/>
</linearGradient>
<linearGradient id="paint15_linear" x1="873.149" y1="674.318" x2="924.37" y2="723.703" gradientUnits="userSpaceOnUse">
<stop stop-color="#C7FFDA"/>
<stop offset="1" stop-color="#39FFE0"/>
</linearGradient>
<linearGradient id="paint16_linear" x1="657.434" y1="498.987" x2="775.634" y2="612.951" gradientUnits="userSpaceOnUse">
<stop stop-color="#C7FFDA"/>
<stop offset="1" stop-color="#39FFE0"/>
</linearGradient>
<linearGradient id="paint17_linear" x1="308.734" y1="104" x2="700.767" y2="481.981" gradientUnits="userSpaceOnUse">
<stop stop-color="#C7FFDA"/>
<stop offset="1" stop-color="#39FFE0"/>
</linearGradient>
<linearGradient id="paint18_linear" x1="354.053" y1="540.357" x2="559.975" y2="777.478" gradientUnits="userSpaceOnUse">
<stop stop-color="#C7FFDA"/>
<stop offset="1" stop-color="#39FFE0"/>
</linearGradient>
<linearGradient id="paint19_linear" x1="29" y1="337.459" x2="354.775" y2="496.153" gradientUnits="userSpaceOnUse">
<stop stop-color="#C7FFDA"/>
<stop offset="1" stop-color="#39FFE0"/>
</linearGradient>
<linearGradient id="paint20_linear" x1="797.305" y1="592.563" x2="872.194" y2="665.719" gradientUnits="userSpaceOnUse">
<stop stop-color="#C7FFDA"/>
<stop offset="1" stop-color="#39FFE0"/>
</linearGradient>
<linearGradient id="paint21_linear" x1="851.479" y1="722.584" x2="876.584" y2="743.066" gradientUnits="userSpaceOnUse">
<stop stop-color="#C7FFDA"/>
<stop offset="1" stop-color="#39FFE0"/>
</linearGradient>
<linearGradient id="paint22_linear" x1="740" y1="582" x2="698" y2="540" gradientUnits="userSpaceOnUse">
<stop stop-color="#130FFF"/>
<stop offset="1" stop-color="#1CA3FF"/>
</linearGradient>
<linearGradient id="paint23_linear" x1="580.221" y1="656.249" x2="545.524" y2="558.076" gradientUnits="userSpaceOnUse">
<stop stop-color="#130FFF"/>
<stop offset="1" stop-color="#1CA3FF"/>
</linearGradient>
<linearGradient id="paint24_linear" x1="486.03" y1="342.419" x2="475.505" y2="314.697" gradientUnits="userSpaceOnUse">
<stop stop-color="#130FFF"/>
<stop offset="1" stop-color="#1CA3FF"/>
</linearGradient>
<linearGradient id="paint25_linear" x1="598.864" y1="320.977" x2="476.995" y2="170.291" gradientUnits="userSpaceOnUse">
<stop stop-color="#130FFF"/>
<stop offset="1" stop-color="#1CA3FF"/>
</linearGradient>
<linearGradient id="paint26_linear" x1="260.476" y1="454.01" x2="217.001" y2="345.321" gradientUnits="userSpaceOnUse">
<stop stop-color="#130FFF"/>
<stop offset="1" stop-color="#1CA3FF"/>
</linearGradient>
</defs>
</svg>
