<svg width="1334" height="1305" viewBox="0 0 1334 1305" fill="none" xmlns="http://www.w3.org/2000/svg">
<path opacity="0.03" d="M1320.18 550.923C1381.82 886.554 836.18 1114.16 613.209 1166.24C390.238 1218.32 275 999.949 275 757.697C275 515.445 537.635 703.33 768.11 664.257C1000.78 664.257 1229.6 279.523 1320.18 550.923Z" fill="url(#paint0_linear)"/>
<path opacity="0.03" d="M689.461 135.394C324.073 73.7557 76.2867 619.392 19.5885 842.364C-37.1097 1065.34 118.87 1115.15 382.599 1115.15C646.329 1115.15 523.541 917.938 566.079 687.463C566.079 454.792 984.922 225.977 689.461 135.394Z" fill="url(#paint1_linear)"/>
<path opacity="0.03" d="M139.502 792.72C286.502 541.22 698.97 137.22 900.002 137.22C1101.03 137.22 1144.64 324.22 1095.5 541.22C1033 817.22 568.034 1122.72 367.002 1122.72C165.97 1122.72 0.684456 1030.22 139.502 792.72Z" fill="url(#paint2_linear)"/>
<path d="M935.245 967.184C988.553 967.184 1031.77 949.548 1031.77 927.792C1031.77 906.037 988.553 888.4 935.245 888.4C881.937 888.4 838.723 906.037 838.723 927.792C838.723 949.548 881.937 967.184 935.245 967.184Z" fill="#B7C0CE"/>
<path d="M1031.77 923.175C1031.77 943.711 988.555 960.361 935.245 960.361C881.935 960.361 838.723 943.715 838.723 923.175C838.723 902.635 881.935 869.033 935.245 869.033C988.555 869.033 1031.77 902.635 1031.77 923.175Z" fill="#D8DEE8"/>
<path d="M1031.77 923.175C1031.77 902.639 988.559 869.033 935.248 869.033C910.634 869.033 888.188 876.204 871.138 885.937C869.945 888.435 869.388 890.923 869.614 893.282C870.72 904.834 889.566 911.94 900.384 914.281C927.625 920.183 940.927 903.895 963.388 904.511C977.274 904.893 996.516 911.87 1019.34 941.415C1027.24 936.028 1031.77 929.807 1031.77 923.175Z" fill="#B7C0CE"/>
<path d="M940.534 894.766C936.679 895.723 933.081 895.689 929.695 894.829C926.626 894.046 924.518 891.207 924.518 888.041V795.433H945.979V887.912C945.979 891.176 943.704 893.98 940.534 894.766Z" fill="#D8DEE8"/>
<path d="M821.839 768.372L854.627 747.645C855.99 739.899 871.447 658.903 934.193 633.467C959.709 623.123 987.169 624.351 1002.24 625.026C1032.32 626.369 1053.78 627.326 1064.1 641.676C1077.36 660.103 1055.12 676.815 1059.73 729.52C1061.61 751.013 1066.38 760.558 1060.43 774.799C1053.31 791.853 1036.8 801.31 1023.96 806.63C1008.61 815.545 981.88 828.245 946.58 831.342C887.122 836.551 842.73 811.046 827.469 801.286C820.68 799.146 815.579 793.502 814.135 786.529C812.67 779.465 815.739 772.231 821.839 768.372Z" fill="url(#paint3_linear)"/>
<path d="M1008.85 629.355C1031.1 630.012 1044.93 629.755 1052.58 639.689C1060.6 650.117 1052.49 659.004 1050.99 696.134C1049.61 729.983 1055.58 743.362 1044.65 762.12C1044.65 762.12 1039.09 771.654 1030.31 778.811C999.304 804.111 919.306 803.808 885.635 750.985C858.773 708.848 869.973 646.732 901.533 626.178C916.996 616.105 920.545 626.738 1008.85 629.355Z" fill="url(#paint4_linear)"/>
<path d="M819.457 749.76L852.245 729.032C852.245 729.032 940.069 700.159 1021.33 740.869C1030.43 745.431 1036.09 754.843 1036.09 765.017C1036.09 772.825 1031.4 779.875 1024.19 782.885C1010.02 792.561 982.345 808.543 944.195 812.725C883.547 819.371 838.421 791.601 825.08 782.669C818.292 780.529 813.191 774.885 811.747 767.916C810.285 760.849 813.358 753.615 819.457 749.76Z" fill="url(#paint5_linear)"/>
<path d="M684.017 995.535L712.009 978.711H724.644C724.644 978.711 728.948 994.731 728.461 995.535C722.831 1004.76 696.623 1011.78 680.266 1012.35C677.552 1012.45 673.762 1012.47 672.781 1010.5C671.125 1007.17 678.533 1000.17 684.017 995.535Z" fill="url(#paint6_linear)"/>
<path d="M712.503 960.356C714.302 970.771 712.026 976.202 709.573 979.244C707.847 981.383 706.313 981.992 696.062 990.851C692.673 993.785 690.947 995.354 691.34 996.171C691.789 997.114 694.782 996.603 701.24 995.051C715.318 991.665 722.392 989.905 724.118 986.516C725.68 983.45 724.298 982.065 724.389 973.708C724.448 968.206 725.569 963.777 726.449 961.004C721.797 960.788 717.151 960.576 712.503 960.356Z" fill="url(#paint7_linear)"/>
<path d="M780.655 1030.73L808.648 1013.91H821.282C821.282 1013.91 825.586 1029.93 825.099 1030.73C819.469 1039.95 793.262 1046.97 776.904 1047.55C774.19 1047.65 770.401 1047.66 769.42 1045.7C767.763 1042.36 775.171 1035.37 780.655 1030.73Z" fill="url(#paint8_linear)"/>
<path d="M809.142 995.553C810.94 1005.96 808.665 1011.4 806.212 1014.44C804.482 1016.58 802.951 1017.18 792.701 1026.05C789.308 1028.98 787.586 1030.55 787.979 1031.37C788.428 1032.31 791.42 1031.8 797.878 1030.25C811.953 1026.86 819.03 1025.1 820.756 1021.71C822.319 1018.64 820.937 1017.26 821.028 1008.9C821.087 1003.4 822.207 998.97 823.088 996.2C818.439 995.981 813.79 995.768 809.142 995.553Z" fill="url(#paint9_linear)"/>
<path d="M711.366 968.498C701.856 920.209 702.931 880.32 705.506 853.722C710.489 802.277 713.126 775.025 733.777 749.802C753.193 726.093 771.252 725.271 814.458 685.117C828.696 671.881 839.451 660.152 846.167 652.5C910.956 633.492 970.717 641.195 997.085 675.942C1000.13 679.954 1007.76 688.667 1009.24 701.506C1012.57 730.484 984.096 765.366 952.15 772.645C911.551 781.904 887.998 740.22 852.026 754.085C841.963 757.965 833.435 767.583 816.371 786.81C794.666 811.268 782.467 833.843 777.849 842.873C764.105 869.766 753.681 889.624 752.16 915.352C751.805 921.347 751.596 933.456 744.574 946.518C739.185 956.542 731.881 963.23 726.446 967.357C721.422 967.736 716.394 968.115 711.366 968.498Z" fill="url(#paint10_linear)"/>
<path d="M879.115 493.466C870.753 487.634 882.678 469.314 883.589 434.202C884.515 398.492 872.938 388.387 882.472 373.818C894.247 355.815 922.925 354.402 929.811 354.061C943.921 353.365 952.495 356.629 965.595 360.025C1021.79 374.58 1035.85 358.978 1061.02 374.563C1085.33 389.619 1074.68 406.108 1098.29 423.767C1136.56 452.39 1176.8 421.446 1204.15 445.389C1230.02 468.034 1230.62 525.728 1203.41 557.211C1172.56 592.907 1116.94 582.18 1079.66 575.106C1071.81 573.617 1032.19 565.301 990.944 534.851C968.125 518.007 952.453 500.021 942.487 486.767C940.149 484.137 936.496 480.943 931.68 480.431C925.893 479.812 921.245 483.354 919.004 484.906C907.17 493.086 886.352 498.518 879.115 493.466Z" fill="url(#paint11_linear)"/>
<path d="M799.803 993.789C809.247 996.718 818.69 999.652 828.134 1002.58C851.749 975.754 859.554 951.947 862.32 935.176C868.294 898.964 853.287 880.342 867.205 851.169C876.263 832.192 891.52 821.409 904.287 812.39C935.06 790.65 947.983 799.122 974.278 779.105C984.149 771.592 1007.78 753.606 1010.96 723.961C1013.71 698.205 999.386 678.935 997.086 675.936C978.572 651.809 943.835 642.021 909.21 650.925C904.349 663.194 895.498 682.401 879.906 702.694C860.173 728.38 847.334 732.778 827.159 758.373C817.733 770.333 801.64 790.744 793.15 819.61C788.216 836.388 787.573 850.15 792.969 917.594C794.654 938.711 796.884 964.428 799.803 993.789Z" fill="url(#paint12_linear)"/>
<path d="M899.893 446.39C890.543 451.856 882.679 455.52 877.22 457.858C865.995 462.66 863.859 463.808 858.869 466.415C844.453 473.944 827.856 487.132 829.564 490.837C832.734 497.71 905.85 455.851 920.895 473.252C932.416 486.579 910.638 535.529 872.053 556.771C835.351 576.977 777.59 575.324 759.852 543.633C749.928 525.904 754.685 502.63 762.653 487.904C773.798 467.312 793.381 459.243 806.787 453.982C818.204 449.501 829.968 447.65 853.497 443.947C869.043 441.505 882.022 439.994 891.104 439.065C894.033 441.505 896.963 443.947 899.893 446.39Z" fill="url(#paint13_linear)"/>
<path d="M919.518 475.559C919.518 475.559 1016.02 447.417 1026.03 518.062C1035.62 585.777 986.468 616.849 1008.83 685.434C1011.43 693.385 960.959 687.54 960.388 688.486C957.333 693.563 954.257 698.838 951.182 704.325C888.414 663.113 825.139 656.972 825.139 656.972C850.003 625.948 855.783 600.356 856.378 582.558C857.029 563.052 851.406 554.183 856.378 531.12C856.378 531.12 861.924 505.386 881.942 483.291C884.816 480.11 888.24 476.808 919.518 475.559Z" fill="url(#paint14_linear)"/>
<path d="M957.002 686.882C956.863 686.882 956.723 686.847 956.598 686.771C955.941 686.367 890.118 646.349 836.975 643.367C836.551 643.343 836.227 642.981 836.251 642.556C836.272 642.135 836.634 641.791 837.062 641.833C865.055 643.402 896.291 655.184 917.565 664.791C940.596 675.191 957.242 685.358 957.409 685.459C957.771 685.678 957.886 686.155 957.663 686.517C957.513 686.754 957.263 686.882 957.002 686.882Z" fill="url(#paint15_linear)"/>
<path d="M957.593 476.2C964.419 467.619 984.35 468.92 997.082 473.743C1016.73 481.182 1022.2 498.121 1036.64 496.698C1043.45 496.03 1051.34 491.37 1051.79 486.443C1052.47 478.83 1029.12 464.926 954.353 445.482C955.818 440.437 957.527 440.047 958.991 434.998C975.526 432.531 1008.05 427.719 1039.09 433.697C1064.18 438.53 1082.72 442.1 1097.7 457.139C1119.29 478.816 1131.87 522.655 1109.42 552.377C1085.43 584.135 1037.85 578.081 1011.74 566.055C968.191 545.996 945.459 491.433 957.593 476.2Z" fill="url(#paint16_linear)"/>
<path d="M940.472 433.22C939.588 437.353 935.089 459.515 944.157 465.214C946.122 466.449 949.898 467.159 957.452 468.572C962.396 469.501 966.544 470.068 969.474 470.42C969.049 474.132 967.8 480.187 963.51 485.684C951.488 501.113 927.382 497.118 923.944 496.492C911.821 494.282 899.886 490.535 897.005 488.249C892.618 484.762 889.169 482.146 887.127 479.487C891.821 477.222 901.292 471.241 907.649 469.282C912.399 467.82 916.86 466.776 920.917 466.025C921.585 461.745 922.249 457.462 922.917 453.182C928.773 446.532 934.623 439.876 940.472 433.22Z" fill="url(#paint17_linear)"/>
<path d="M940.897 444.264C940.897 444.264 939.258 460.506 923.471 463.367C909.338 465.931 898.694 431.772 905.928 422.938C908.339 419.987 914.299 417.186 919.463 417.336C923.096 417.44 935.365 422.113 937.076 434.389C939.519 431.814 942.564 431.073 944.063 432.148C945.967 433.519 944.947 437.493 944.718 438.394C943.917 441.515 941.882 443.446 940.897 444.264Z" fill="url(#paint18_linear)"/>
<path d="M891.099 439.066C891.099 439.066 895.111 444.849 898.232 445.013C901.353 445.169 901.109 435.68 899.397 433.22C897.689 430.76 896.513 422.458 900.643 420.015C904.773 417.576 885.97 418.551 891.099 439.066Z" fill="url(#paint19_linear)"/>
<path d="M945.806 420.657C950.204 424.808 950.444 429.206 949.226 434.818C948.005 440.434 946.366 445.713 952.96 445.473C959.553 445.229 961.13 440.438 960.674 434.818C960.406 431.53 954.223 423.176 949.717 419.836C946.529 417.476 943.986 418.934 945.806 420.657Z" fill="url(#paint20_linear)"/>
<g opacity="0.3">
<path opacity="0.3" d="M1082.63 540.261C1052.57 548.918 1026.23 512.776 1004.34 524.603C986.99 533.977 997.832 559.798 975.636 602.892C967.706 618.282 951.158 651.174 929.532 650.736C909.413 650.329 902.079 620.857 873.86 613.331C865.937 611.219 858.059 611.288 850.616 612.628C846.089 625.655 838.309 640.541 825.143 656.968C825.143 656.968 888.421 663.113 951.185 704.321C954.261 698.834 957.337 693.559 960.392 688.482C960.963 687.539 1011.43 693.381 1008.84 685.431C993.062 637.048 1012.86 607.322 1022.53 570.24C1049.46 579.002 1088.46 580.136 1109.42 552.373C1121.72 536.089 1123.5 515.57 1119.05 496.773C1111.6 516.819 1100.28 535.174 1082.63 540.261Z" fill="#130FFF"/>
</g>
<path d="M509.98 933.281C509.177 933.281 508.467 932.724 508.286 931.924L441.19 635.217C440.978 634.277 441.566 633.348 442.502 633.136C443.441 632.913 444.37 633.508 444.582 634.448L508.241 915.956V610.978C508.241 610.018 509.02 609.238 509.98 609.238C510.941 609.238 511.72 610.018 511.72 610.978V931.541C511.72 932.428 511.055 933.173 510.175 933.27C510.109 933.277 510.043 933.281 509.98 933.281Z" fill="black"/>
<path d="M288.062 1036.16C288.013 1036.16 287.964 1036.15 287.915 1036.15C287.014 1036.08 286.318 1035.32 286.318 1034.42V681.201C286.318 680.24 287.098 679.461 288.058 679.461C289.018 679.461 289.798 680.24 289.798 681.201V1013.31L347.983 662.87C348.139 661.924 349.041 661.277 349.983 661.44C350.93 661.597 351.574 662.495 351.414 663.441L289.773 1034.7C289.638 1035.55 288.904 1036.16 288.062 1036.16Z" fill="black"/>
<path d="M1010.96 1106.23C1010.11 1106.23 1009.38 1105.62 1009.24 1104.78L946.62 733.526C946.46 732.58 947.1 731.682 948.047 731.522C948.983 731.351 949.891 732.002 950.051 732.949L1009.22 1083.72V720.565C1009.22 719.605 1010 718.825 1010.96 718.825C1011.92 718.825 1012.7 719.605 1012.7 720.565V1104.49C1012.7 1105.4 1012 1106.15 1011.1 1106.23C1011.05 1106.23 1011.01 1106.23 1010.96 1106.23Z" fill="black"/>
<path d="M742.017 1221.04C741.958 1221.04 741.898 1221.04 741.839 1221.03C740.952 1220.94 740.273 1220.2 740.273 1219.3V828.476C740.273 827.516 741.053 826.736 742.013 826.736C742.974 826.736 743.753 827.516 743.753 828.476V1202.01L830.327 776.13C830.519 775.187 831.437 774.578 832.377 774.77C833.32 774.964 833.925 775.88 833.734 776.823L743.715 1219.65C743.555 1220.47 742.834 1221.04 742.017 1221.04Z" fill="black"/>
<path d="M498.926 612.712L1014.6 715.804V722.516L741.077 831.335L284.332 682.692C284.332 680.452 284.332 678.218 284.332 675.98C355.864 654.891 427.393 633.801 498.926 612.712Z" fill="#D0E0E7"/>
<path d="M498.926 606.001L1014.6 715.805L741.077 824.627L284.332 675.981L498.926 606.001Z" fill="white"/>
<path d="M716.856 665.441L802.4 678.629V684.454L766.805 701.601L692.252 682.776L716.856 665.441Z" fill="#B7C0CE"/>
<path d="M716.856 659.618L802.4 678.63L766.805 695.778L692.252 676.953L716.856 659.618Z" fill="#D8DEE8"/>
<path d="M738.423 720.609L724.756 540.223C724.54 537.37 722.094 534.708 718.854 533.796L484.876 468.026C482.782 467.438 478.766 468.012 477.173 469C475.579 469.992 473.77 469.776 473.846 471.617L483.627 638.318C483.791 641.092 486.07 643.719 489.194 644.735L733.399 724.065L738.423 720.609Z" fill="#B7C0CE"/>
<path d="M733.4 724.065L719.235 542.169C719.016 539.319 716.573 536.664 713.337 535.753L479.348 469.979C477.254 469.391 475.114 469.621 473.52 470.612C471.926 471.6 471.046 473.246 471.126 475.083L478.169 640.135C478.291 642.968 480.639 645.675 483.851 646.674L733.4 724.065Z" fill="white"/>
<path d="M733.401 724.06L483.852 646.668C480.64 645.669 478.288 642.966 478.169 640.13L476.047 590.352C550.126 637.621 643.402 655.875 730.22 683.175L733.401 724.06Z" fill="#EBEFF2"/>
<path d="M609.223 729.604L618.075 735.102C618.075 735.102 660.1 716.466 662.616 715.345C663.016 715.164 664.746 713.014 662.616 712.13C651.356 707.44 608.384 696.333 608.384 696.333L586.018 706.96L609.223 729.604Z" fill="white"/>
<path d="M609.223 726.386L618.075 731.884C618.075 731.884 660.1 713.251 662.616 712.13C665.132 711.01 608.384 693.118 608.384 693.118L586.018 703.741L609.223 726.386Z" fill="#D0E0E7"/>
<path d="M565.522 587.115C565.522 587.115 544.276 700.806 542.038 707.142C539.971 712.991 600.147 731.965 614.538 735.563C615.735 735.862 617.516 735.34 618.08 735.097C622.179 735.465 603.076 597.832 603.076 597.832L601.681 597.554L565.522 587.115Z" fill="white"/>
<path d="M565.517 587.115C565.517 587.115 540.544 701.174 538.307 707.514C536.07 713.85 608.009 734.355 614.349 735.469C618.448 735.841 601.676 597.554 601.676 597.554L565.517 587.115Z" fill="#D0E0E7"/>
<path d="M351.809 505.633C352.879 505.594 402.496 504.119 422.128 503.535C424.91 503.452 426.123 499.988 424.007 498.18L377.883 458.784L351.809 505.633Z" fill="white"/>
<path d="M375.031 369.247L173.118 366.723C168.855 366.576 165.318 369.992 165.318 374.26V504.394C165.318 508.779 169.048 512.24 173.423 511.913L375.336 504.538C379.27 504.243 382.312 500.965 382.312 497.019V376.781C382.312 372.719 379.091 369.386 375.031 369.247Z" fill="#D0E0E7"/>
<path d="M381.498 369.247L179.585 366.723C175.321 366.576 171.785 369.992 171.785 374.26V504.394C171.785 508.779 175.515 512.24 179.889 511.913L381.803 504.538C385.737 504.243 388.779 500.965 388.779 497.019V376.781C388.779 372.719 385.559 369.386 381.498 369.247Z" fill="white"/>
<path d="M365.45 390.128H304.777C302.341 390.128 300.367 392.103 300.367 394.538V486.225C300.367 488.705 302.415 490.699 304.895 490.633L365.569 489.019C367.959 488.955 369.862 487 369.862 484.61V394.538C369.861 392.102 367.887 390.128 365.45 390.128Z" fill="#F4F7FA"/>
<path d="M328.495 402.733L230.395 401.768C228.759 401.765 227.3 402.361 226.166 403.482C225.034 404.604 224.41 406.099 224.41 407.693V469.178C224.41 471.299 225.253 473.274 226.785 474.74C228.234 476.128 230.113 476.883 232.073 476.883C232.184 476.883 232.295 476.881 232.406 476.875L328.759 474.864C332.909 474.685 336.159 471.293 336.159 467.14V410.465C336.158 406.237 332.719 402.769 328.495 402.733ZM329.021 412.041L293.825 443.812C291.503 445.908 288.591 446.973 285.663 446.973C283.215 446.973 280.757 446.228 278.621 444.719L232.521 412.168C231.75 411.624 231.567 410.559 232.111 409.788C232.655 409.019 233.721 408.835 234.491 409.377L280.591 441.929C283.969 444.314 288.468 444.046 291.537 441.275L326.733 409.504C327.434 408.872 328.515 408.93 329.146 409.627C329.776 410.329 329.722 411.409 329.021 412.041Z" fill="url(#paint21_linear)"/>
<path d="M680.745 364.533L444.706 366.183C435.627 365.937 428.482 358.239 428.862 349.072L433.536 236.139C433.916 226.976 441.673 219.915 450.737 220.45L685.404 236.394C693.395 236.867 699.619 244.253 699.265 252.814L694.898 358.28C694.547 366.838 688.75 364.723 680.745 364.533Z" fill="#D0E0E7"/>
<path d="M616.413 356.675L614.758 399.968L618.987 401.995L651.576 359.158L616.413 356.675Z" fill="#D8DEE8"/>
<path d="M684.371 373.764L448.51 366.484C439.405 366.239 432.24 358.505 432.62 349.301L437.314 235.867C437.694 226.663 445.475 219.57 454.568 220.106L690.069 236.078C698.083 236.549 704.327 243.969 703.97 252.571L699.586 358.526C699.232 367.119 692.397 373.978 684.371 373.764Z" fill="white"/>
<path d="M620.863 356.514L618.982 401.995L656.136 359L620.863 356.514Z" fill="white"/>
<path d="M622.874 260.102L516.117 252.139C514.276 252.015 512.594 252.549 511.253 253.675C509.91 254.8 509.12 256.366 509.029 258.084L505.545 324.336C505.424 326.621 506.266 328.79 507.915 330.441C509.472 332.002 511.551 332.899 513.758 332.987C513.882 332.99 514.009 332.993 514.132 332.995L619.205 335.137C623.585 335.131 627.182 331.751 627.408 327.441L630.501 268.645C630.735 264.258 627.317 260.426 622.874 260.102ZM622.921 269.818L583.663 300.935C581.04 303.013 577.83 303.976 574.659 303.816C572.003 303.684 569.369 302.762 567.129 301.05L517.922 263.471C517.086 262.832 516.943 261.673 517.595 260.883C518.25 260.096 519.458 259.972 520.292 260.611L569.43 298.21C572.969 300.918 577.863 300.885 581.334 298.138L620.65 267.032C621.424 266.421 622.558 266.551 623.185 267.319C623.81 268.087 623.695 269.207 622.921 269.818Z" fill="url(#paint22_linear)"/>
<path d="M238.535 167.017L245.858 193.076L260.361 176.912L238.535 167.017Z" fill="url(#paint23_linear)"/>
<path d="M351.521 119.129L298.489 200.637C297.474 202.199 295.869 203.278 294.038 203.629C292.21 203.981 290.317 203.574 288.797 202.5L208.967 146.171C208.053 145.525 207.619 144.39 207.876 143.303C208.129 142.213 209.02 141.388 210.127 141.215L351.521 119.129Z" fill="url(#paint24_linear)"/>
<path d="M238.545 167.017L351.521 119.129L251.4 176.147L253.122 183.46L238.545 167.017Z" fill="url(#paint25_linear)"/>
<path d="M259.065 181.504L245.859 193.077L251.401 176.148L259.065 181.504Z" fill="url(#paint26_linear)"/>
<path d="M228.339 614.308C227.788 614.308 227.232 614.15 226.742 613.821L225.509 612.99C224.199 612.108 223.854 610.335 224.737 609.029C225.623 607.72 227.398 607.382 228.707 608.259L229.94 609.09C231.248 609.972 231.595 611.745 230.712 613.051C230.16 613.867 229.258 614.308 228.339 614.308ZM216.167 605.853C215.587 605.853 215.004 605.678 214.501 605.316C212.942 604.198 211.388 603.069 209.842 601.929C208.573 600.992 208.308 599.204 209.246 597.938C210.187 596.671 211.979 596.407 213.247 597.342C214.768 598.468 216.3 599.583 217.837 600.686C219.119 601.604 219.411 603.388 218.49 604.666C217.932 605.44 217.053 605.853 216.167 605.853ZM200.937 594.404C200.317 594.404 199.69 594.204 199.166 593.79C197.657 592.603 196.16 591.405 194.672 590.195C193.448 589.203 193.261 587.405 194.258 586.184C195.255 584.964 197.054 584.777 198.28 585.772C199.749 586.962 201.225 588.141 202.71 589.313C203.949 590.289 204.16 592.082 203.182 593.318C202.618 594.031 201.783 594.404 200.937 594.404ZM186.277 582.254C185.61 582.254 184.939 582.021 184.396 581.548C182.949 580.287 181.514 579.013 180.09 577.731C178.919 576.674 178.828 574.871 179.886 573.701C180.951 572.535 182.756 572.446 183.925 573.498C185.324 574.76 186.736 576.012 188.16 577.256C189.35 578.292 189.472 580.093 188.431 581.28C187.867 581.923 187.074 582.254 186.277 582.254ZM172.296 569.348C171.573 569.348 170.849 569.076 170.292 568.532C168.918 567.186 167.559 565.833 166.217 564.47C165.109 563.346 165.123 561.541 166.251 560.436C167.376 559.333 169.185 559.346 170.294 560.47C171.613 561.807 172.947 563.137 174.299 564.458C175.425 565.561 175.444 567.368 174.339 568.494C173.777 569.063 173.035 569.348 172.296 569.348ZM159.134 555.621C158.35 555.621 157.567 555.299 157.003 554.672C155.712 553.232 154.443 551.783 153.192 550.328C152.165 549.13 152.306 547.329 153.505 546.306C154.712 545.279 156.511 545.422 157.536 546.618C158.76 548.044 159.999 549.459 161.261 550.864C162.313 552.038 162.216 553.841 161.04 554.892C160.497 555.381 159.812 555.621 159.134 555.621ZM146.971 540.983C146.107 540.983 145.257 540.597 144.695 539.859C143.521 538.324 142.368 536.782 141.241 535.228C140.315 533.952 140.599 532.17 141.876 531.244C143.159 530.319 144.943 530.601 145.869 531.877C146.973 533.393 148.095 534.899 149.243 536.399C150.202 537.651 149.96 539.442 148.704 540.397C148.185 540.793 147.575 540.983 146.971 540.983ZM136.074 525.388C135.122 525.388 134.196 524.916 133.651 524.057C132.616 522.417 131.609 520.769 130.632 519.112C129.829 517.754 130.281 516.005 131.644 515.206C133.005 514.403 134.756 514.858 135.557 516.214C136.508 517.823 137.484 519.422 138.491 521.012C139.331 522.345 138.929 524.108 137.595 524.947C137.122 525.245 136.596 525.388 136.074 525.388ZM126.76 508.804C125.704 508.804 124.69 508.219 124.193 507.211C123.333 505.469 122.51 503.715 121.72 501.952C121.074 500.515 121.72 498.826 123.163 498.185C124.597 497.54 126.295 498.183 126.939 499.624C127.7 501.325 128.497 503.013 129.324 504.693C130.022 506.106 129.438 507.817 128.02 508.512C127.616 508.711 127.185 508.804 126.76 508.804ZM119.412 491.283C118.225 491.283 117.115 490.542 116.709 489.361C116.075 487.529 115.478 485.684 114.919 483.832C114.466 482.324 115.322 480.732 116.835 480.279C118.341 479.831 119.942 480.681 120.396 482.191C120.929 483.971 121.507 485.74 122.115 487.501C122.632 488.988 121.839 490.614 120.346 491.127C120.035 491.234 119.721 491.283 119.412 491.283ZM114.468 472.946C113.128 472.946 111.929 472.001 111.664 470.637C111.294 468.734 110.964 466.819 110.675 464.894C110.438 463.336 111.513 461.883 113.074 461.648C114.643 461.406 116.092 462.486 116.328 464.044C116.606 465.89 116.923 467.724 117.275 469.549C117.578 471.096 116.566 472.594 115.015 472.895C114.832 472.931 114.649 472.946 114.468 472.946ZM112.106 454.09C110.604 454.09 109.344 452.924 109.253 451.41C109.134 449.484 109.052 447.552 109.001 445.608C108.961 444.033 110.208 442.723 111.788 442.683C113.349 442.71 114.677 443.889 114.719 445.463C114.765 447.339 114.845 449.206 114.959 451.064C115.057 452.635 113.856 453.989 112.279 454.084C112.222 454.088 112.163 454.09 112.106 454.09ZM112.035 435.08C111.988 435.08 111.938 435.078 111.891 435.076C110.314 434.998 109.096 433.657 109.178 432.084C109.274 430.165 109.399 428.241 109.554 426.307C109.68 424.74 111.086 423.578 112.63 423.692C114.207 423.817 115.379 425.192 115.253 426.761C115.101 428.636 114.98 430.508 114.889 432.37C114.813 433.895 113.549 435.08 112.035 435.08ZM113.896 416.161C113.759 416.161 113.621 416.151 113.482 416.13C111.919 415.904 110.837 414.455 111.063 412.897C111.34 410.999 111.641 409.097 111.963 407.194C112.23 405.64 113.715 404.6 115.261 404.858C116.816 405.123 117.864 406.595 117.601 408.146C117.285 410.006 116.991 411.863 116.721 413.717C116.515 415.139 115.293 416.161 113.896 416.161ZM117.382 397.464C117.176 397.464 116.963 397.441 116.753 397.396C115.211 397.048 114.245 395.522 114.59 393.986C115.013 392.118 115.459 390.243 115.924 388.372C116.305 386.843 117.859 385.909 119.389 386.291C120.922 386.671 121.854 388.221 121.475 389.748C121.017 391.58 120.581 393.409 120.169 395.237C119.87 396.563 118.69 397.464 117.382 397.464ZM122.224 379.07C121.953 379.07 121.677 379.032 121.406 378.952C119.893 378.501 119.031 376.913 119.483 375.403C120.032 373.568 120.598 371.733 121.183 369.901C121.661 368.399 123.274 367.57 124.774 368.045C126.28 368.523 127.113 370.128 126.634 371.628C126.061 373.429 125.502 375.232 124.965 377.033C124.593 378.269 123.455 379.07 122.224 379.07ZM128.213 361.014C127.889 361.014 127.563 360.961 127.239 360.843C125.754 360.307 124.986 358.671 125.525 357.19C126.179 355.391 126.85 353.592 127.538 351.794C128.098 350.324 129.743 349.583 131.228 350.147C132.704 350.709 133.445 352.357 132.881 353.831C132.206 355.596 131.545 357.363 130.902 359.133C130.481 360.294 129.379 361.014 128.213 361.014ZM135.193 343.299C134.823 343.299 134.446 343.227 134.084 343.075C132.627 342.462 131.947 340.789 132.561 339.338C133.312 337.567 134.072 335.804 134.85 334.043C135.485 332.602 137.162 331.945 138.62 332.581C140.063 333.216 140.723 334.899 140.086 336.342C139.322 338.077 138.569 339.813 137.831 341.555C137.368 342.645 136.308 343.299 135.193 343.299ZM143.037 325.938C142.621 325.938 142.202 325.848 141.803 325.658C140.379 324.977 139.779 323.273 140.461 321.853C141.293 320.128 142.129 318.405 142.979 316.687C143.679 315.274 145.396 314.692 146.809 315.392C148.225 316.09 148.806 317.802 148.107 319.213C147.268 320.911 146.437 322.611 145.617 324.319C145.124 325.34 144.1 325.938 143.037 325.938ZM151.627 308.953C151.176 308.953 150.714 308.844 150.288 308.618C148.894 307.878 148.364 306.151 149.106 304.761C150.005 303.071 150.915 301.389 151.831 299.716C152.59 298.333 154.328 297.825 155.714 298.58C157.1 299.335 157.609 301.072 156.85 302.452C155.945 304.107 155.043 305.767 154.153 307.439C153.64 308.403 152.649 308.953 151.627 308.953ZM160.899 292.35C160.409 292.35 159.915 292.227 159.464 291.962C158.099 291.169 157.638 289.421 158.432 288.062C159.401 286.403 160.377 284.756 161.358 283.117C162.17 281.763 163.93 281.325 165.281 282.134C166.634 282.944 167.077 284.695 166.267 286.048C165.294 287.668 164.33 289.296 163.373 290.931C162.841 291.842 161.882 292.35 160.899 292.35ZM170.813 276.097C170.287 276.097 169.757 275.955 169.282 275.654C167.95 274.81 167.553 273.047 168.399 271.718C169.431 270.095 170.468 268.488 171.508 266.889C172.368 265.567 174.139 265.193 175.464 266.052C176.786 266.91 177.164 268.677 176.302 269.998C175.273 271.579 174.247 273.172 173.228 274.776C172.681 275.63 171.758 276.097 170.813 276.097ZM181.325 260.223C180.766 260.223 180.202 260.062 179.708 259.721C178.405 258.829 178.077 257.055 178.969 255.756C180.059 254.17 181.155 252.599 182.255 251.041C183.164 249.752 184.947 249.446 186.237 250.351C187.529 251.258 187.838 253.036 186.931 254.326C185.844 255.866 184.762 257.418 183.683 258.987C183.13 259.79 182.236 260.223 181.325 260.223ZM192.417 244.744C191.824 244.744 191.225 244.56 190.713 244.18C189.447 243.24 189.182 241.452 190.125 240.188C191.277 238.642 192.432 237.111 193.587 235.601C194.544 234.345 196.337 234.106 197.594 235.062C198.85 236.017 199.092 237.807 198.133 239.06C196.991 240.555 195.853 242.067 194.712 243.596C194.153 244.347 193.291 244.744 192.417 244.744ZM204.099 229.701C203.47 229.701 202.837 229.496 202.309 229.07C201.078 228.081 200.884 226.286 201.875 225.061C203.091 223.553 204.307 222.071 205.519 220.609C206.526 219.396 208.327 219.226 209.545 220.232C210.759 221.236 210.929 223.037 209.922 224.249C208.725 225.689 207.526 227.151 206.326 228.638C205.765 229.338 204.936 229.701 204.099 229.701ZM216.396 215.155C215.725 215.155 215.05 214.919 214.507 214.439C213.321 213.395 213.21 211.592 214.257 210.413C215.544 208.958 216.826 207.532 218.1 206.134C219.169 204.967 220.974 204.887 222.141 205.94C223.309 207.002 223.395 208.806 222.335 209.97C221.077 211.351 219.813 212.758 218.544 214.19C217.976 214.829 217.189 215.155 216.396 215.155Z" fill="url(#paint27_linear)"/>
<path d="M228.339 614.308C227.788 614.308 227.232 614.15 226.742 613.821L225.509 612.99C224.199 612.108 223.854 610.335 224.737 609.029C225.623 607.72 227.398 607.382 228.707 608.259L229.94 609.09C231.248 609.972 231.595 611.745 230.712 613.051C230.16 613.867 229.258 614.308 228.339 614.308ZM216.167 605.853C215.587 605.853 215.004 605.678 214.501 605.316C212.942 604.198 211.388 603.069 209.842 601.929C208.573 600.992 208.308 599.204 209.246 597.938C210.187 596.671 211.979 596.407 213.247 597.342C214.768 598.468 216.3 599.583 217.837 600.686C219.119 601.604 219.411 603.388 218.49 604.666C217.932 605.44 217.053 605.853 216.167 605.853ZM200.937 594.404C200.317 594.404 199.69 594.204 199.166 593.79C197.657 592.603 196.16 591.405 194.672 590.195C193.448 589.203 193.261 587.405 194.258 586.184C195.255 584.964 197.054 584.777 198.28 585.772C199.749 586.962 201.225 588.141 202.71 589.313C203.949 590.289 204.16 592.082 203.182 593.318C202.618 594.031 201.783 594.404 200.937 594.404ZM186.277 582.254C185.61 582.254 184.939 582.021 184.396 581.548C182.949 580.287 181.514 579.013 180.09 577.731C178.919 576.674 178.828 574.871 179.886 573.701C180.951 572.535 182.756 572.446 183.925 573.498C185.324 574.76 186.736 576.012 188.16 577.256C189.35 578.292 189.472 580.093 188.431 581.28C187.867 581.923 187.074 582.254 186.277 582.254ZM172.296 569.348C171.573 569.348 170.849 569.076 170.292 568.532C168.918 567.186 167.559 565.833 166.217 564.47C165.109 563.346 165.123 561.541 166.251 560.436C167.376 559.333 169.185 559.346 170.294 560.47C171.613 561.807 172.947 563.137 174.299 564.458C175.425 565.561 175.444 567.368 174.339 568.494C173.777 569.063 173.035 569.348 172.296 569.348ZM159.134 555.621C158.35 555.621 157.567 555.299 157.003 554.672C155.712 553.232 154.443 551.783 153.192 550.328C152.165 549.13 152.306 547.329 153.505 546.306C154.712 545.279 156.511 545.422 157.536 546.618C158.76 548.044 159.999 549.459 161.261 550.864C162.313 552.038 162.216 553.841 161.04 554.892C160.497 555.381 159.812 555.621 159.134 555.621ZM146.971 540.983C146.107 540.983 145.257 540.597 144.695 539.859C143.521 538.324 142.368 536.782 141.241 535.228C140.315 533.952 140.599 532.17 141.876 531.244C143.159 530.319 144.943 530.601 145.869 531.877C146.973 533.393 148.095 534.899 149.243 536.399C150.202 537.651 149.96 539.442 148.704 540.397C148.185 540.793 147.575 540.983 146.971 540.983ZM136.074 525.388C135.122 525.388 134.196 524.916 133.651 524.057C132.616 522.417 131.609 520.769 130.632 519.112C129.829 517.754 130.281 516.005 131.644 515.206C133.005 514.403 134.756 514.858 135.557 516.214C136.508 517.823 137.484 519.422 138.491 521.012C139.331 522.345 138.929 524.108 137.595 524.947C137.122 525.245 136.596 525.388 136.074 525.388ZM126.76 508.804C125.704 508.804 124.69 508.219 124.193 507.211C123.333 505.469 122.51 503.715 121.72 501.952C121.074 500.515 121.72 498.826 123.163 498.185C124.597 497.54 126.295 498.183 126.939 499.624C127.7 501.325 128.497 503.013 129.324 504.693C130.022 506.106 129.438 507.817 128.02 508.512C127.616 508.711 127.185 508.804 126.76 508.804ZM119.412 491.283C118.225 491.283 117.115 490.542 116.709 489.361C116.075 487.529 115.478 485.684 114.919 483.832C114.466 482.324 115.322 480.732 116.835 480.279C118.341 479.831 119.942 480.681 120.396 482.191C120.929 483.971 121.507 485.74 122.115 487.501C122.632 488.988 121.839 490.614 120.346 491.127C120.035 491.234 119.721 491.283 119.412 491.283ZM114.468 472.946C113.128 472.946 111.929 472.001 111.664 470.637C111.294 468.734 110.964 466.819 110.675 464.894C110.438 463.336 111.513 461.883 113.074 461.648C114.643 461.406 116.092 462.486 116.328 464.044C116.606 465.89 116.923 467.724 117.275 469.549C117.578 471.096 116.566 472.594 115.015 472.895C114.832 472.931 114.649 472.946 114.468 472.946ZM112.106 454.09C110.604 454.09 109.344 452.924 109.253 451.41C109.134 449.484 109.052 447.552 109.001 445.608C108.961 444.033 110.208 442.723 111.788 442.683C113.349 442.71 114.677 443.889 114.719 445.463C114.765 447.339 114.845 449.206 114.959 451.064C115.057 452.635 113.856 453.989 112.279 454.084C112.222 454.088 112.163 454.09 112.106 454.09ZM112.035 435.08C111.988 435.08 111.938 435.078 111.891 435.076C110.314 434.998 109.096 433.657 109.178 432.084C109.274 430.165 109.399 428.241 109.554 426.307C109.68 424.74 111.086 423.578 112.63 423.692C114.207 423.817 115.379 425.192 115.253 426.761C115.101 428.636 114.98 430.508 114.889 432.37C114.813 433.895 113.549 435.08 112.035 435.08ZM113.896 416.161C113.759 416.161 113.621 416.151 113.482 416.13C111.919 415.904 110.837 414.455 111.063 412.897C111.34 410.999 111.641 409.097 111.963 407.194C112.23 405.64 113.715 404.6 115.261 404.858C116.816 405.123 117.864 406.595 117.601 408.146C117.285 410.006 116.991 411.863 116.721 413.717C116.515 415.139 115.293 416.161 113.896 416.161ZM117.382 397.464C117.176 397.464 116.963 397.441 116.753 397.396C115.211 397.048 114.245 395.522 114.59 393.986C115.013 392.118 115.459 390.243 115.924 388.372C116.305 386.843 117.859 385.909 119.389 386.291C120.922 386.671 121.854 388.221 121.475 389.748C121.017 391.58 120.581 393.409 120.169 395.237C119.87 396.563 118.69 397.464 117.382 397.464ZM122.224 379.07C121.953 379.07 121.677 379.032 121.406 378.952C119.893 378.501 119.031 376.913 119.483 375.403C120.032 373.568 120.598 371.733 121.183 369.901C121.661 368.399 123.274 367.57 124.774 368.045C126.28 368.523 127.113 370.128 126.634 371.628C126.061 373.429 125.502 375.232 124.965 377.033C124.593 378.269 123.455 379.07 122.224 379.07ZM128.213 361.014C127.889 361.014 127.563 360.961 127.239 360.843C125.754 360.307 124.986 358.671 125.525 357.19C126.179 355.391 126.85 353.592 127.538 351.794C128.098 350.324 129.743 349.583 131.228 350.147C132.704 350.709 133.445 352.357 132.881 353.831C132.206 355.596 131.545 357.363 130.902 359.133C130.481 360.294 129.379 361.014 128.213 361.014ZM135.193 343.299C134.823 343.299 134.446 343.227 134.084 343.075C132.627 342.462 131.947 340.789 132.561 339.338C133.312 337.567 134.072 335.804 134.85 334.043C135.485 332.602 137.162 331.945 138.62 332.581C140.063 333.216 140.723 334.899 140.086 336.342C139.322 338.077 138.569 339.813 137.831 341.555C137.368 342.645 136.308 343.299 135.193 343.299ZM143.037 325.938C142.621 325.938 142.202 325.848 141.803 325.658C140.379 324.977 139.779 323.273 140.461 321.853C141.293 320.128 142.129 318.405 142.979 316.687C143.679 315.274 145.396 314.692 146.809 315.392C148.225 316.09 148.806 317.802 148.107 319.213C147.268 320.911 146.437 322.611 145.617 324.319C145.124 325.34 144.1 325.938 143.037 325.938ZM151.627 308.953C151.176 308.953 150.714 308.844 150.288 308.618C148.894 307.878 148.364 306.151 149.106 304.761C150.005 303.071 150.915 301.389 151.831 299.716C152.59 298.333 154.328 297.825 155.714 298.58C157.1 299.335 157.609 301.072 156.85 302.452C155.945 304.107 155.043 305.767 154.153 307.439C153.64 308.403 152.649 308.953 151.627 308.953ZM160.899 292.35C160.409 292.35 159.915 292.227 159.464 291.962C158.099 291.169 157.638 289.421 158.432 288.062C159.401 286.403 160.377 284.756 161.358 283.117C162.17 281.763 163.93 281.325 165.281 282.134C166.634 282.944 167.077 284.695 166.267 286.048C165.294 287.668 164.33 289.296 163.373 290.931C162.841 291.842 161.882 292.35 160.899 292.35ZM170.813 276.097C170.287 276.097 169.757 275.955 169.282 275.654C167.95 274.81 167.553 273.047 168.399 271.718C169.431 270.095 170.468 268.488 171.508 266.889C172.368 265.567 174.139 265.193 175.464 266.052C176.786 266.91 177.164 268.677 176.302 269.998C175.273 271.579 174.247 273.172 173.228 274.776C172.681 275.63 171.758 276.097 170.813 276.097ZM181.325 260.223C180.766 260.223 180.202 260.062 179.708 259.721C178.405 258.829 178.077 257.055 178.969 255.756C180.059 254.17 181.155 252.599 182.255 251.041C183.164 249.752 184.947 249.446 186.237 250.351C187.529 251.258 187.838 253.036 186.931 254.326C185.844 255.866 184.762 257.418 183.683 258.987C183.13 259.79 182.236 260.223 181.325 260.223ZM192.417 244.744C191.824 244.744 191.225 244.56 190.713 244.18C189.447 243.24 189.182 241.452 190.125 240.188C191.277 238.642 192.432 237.111 193.587 235.601C194.544 234.345 196.337 234.106 197.594 235.062C198.85 236.017 199.092 237.807 198.133 239.06C196.991 240.555 195.853 242.067 194.712 243.596C194.153 244.347 193.291 244.744 192.417 244.744ZM204.099 229.701C203.47 229.701 202.837 229.496 202.309 229.07C201.078 228.081 200.884 226.286 201.875 225.061C203.091 223.553 204.307 222.071 205.519 220.609C206.526 219.396 208.327 219.226 209.545 220.232C210.759 221.236 210.929 223.037 209.922 224.249C208.725 225.689 207.526 227.151 206.326 228.638C205.765 229.338 204.936 229.701 204.099 229.701ZM216.396 215.155C215.725 215.155 215.05 214.919 214.507 214.439C213.321 213.395 213.21 211.592 214.257 210.413C215.544 208.958 216.826 207.532 218.1 206.134C219.169 204.967 220.974 204.887 222.141 205.94C223.309 207.002 223.395 208.806 222.335 209.97C221.077 211.351 219.813 212.758 218.544 214.19C217.976 214.829 217.189 215.155 216.396 215.155Z" fill="url(#paint28_linear)"/>
<path d="M1158.95 121.472L1153.36 144.655L1140.06 130.898L1158.95 121.472Z" fill="url(#paint29_linear)"/>
<path d="M1057.92 83L1107.27 153.028C1108.21 154.367 1109.66 155.267 1111.28 155.516C1112.9 155.765 1114.56 155.345 1115.86 154.349L1184.31 102.149C1185.09 101.551 1185.43 100.538 1185.17 99.5874C1184.91 98.6366 1184.1 97.9385 1183.12 97.8221L1057.92 83Z" fill="url(#paint30_linear)"/>
<path d="M1158.95 121.471L1057.92 83L1147.93 129.93L1146.65 136.424L1158.95 121.471Z" fill="url(#paint31_linear)"/>
<path d="M1141.36 134.896L1153.36 144.655L1147.93 129.931L1141.36 134.896Z" fill="url(#paint32_linear)"/>
<path d="M1177.45 166.946C1177.45 166.946 1228.47 233.891 1223.68 305.086C1218.9 376.281 1154.61 393.815 1154.61 393.815" stroke="url(#paint33_linear)" stroke-width="5" stroke-linecap="round" stroke-linejoin="round" stroke-dasharray="4 12"/>
<path d="M775.599 279.543V225.336V191.698C775.599 185.071 780.972 179.698 787.599 179.698H942.38C947.768 179.743 952.113 184.125 952.113 189.513V278.379C952.113 283.636 947.971 287.959 942.719 288.185L785.788 294.94C731.056 310.89 750.961 304.188 775.599 279.543Z" fill="#D0E0E7"/>
<path d="M778.787 279.543V225.336V191.698C778.787 185.071 784.159 179.698 790.787 179.698H945.568C950.956 179.743 955.301 184.125 955.301 189.513V278.379C955.301 283.636 951.158 287.959 945.906 288.185L788.975 294.94C734.244 310.89 754.149 304.188 778.787 279.543Z" fill="#F8FFFA"/>
<path d="M827.549 267.443C825.937 267.443 824.39 266.824 823.196 265.68C821.935 264.474 821.24 262.847 821.24 261.102V210.488C821.24 209.176 821.753 207.944 822.686 207.022C823.618 206.098 824.82 205.608 826.167 205.61L906.922 206.403C910.4 206.433 913.231 209.287 913.231 212.769V259.423C913.231 262.842 910.557 265.635 907.14 265.783L827.824 267.438C827.731 267.442 827.641 267.443 827.549 267.443ZM826.118 208.423C825.57 208.423 825.055 208.633 824.665 209.02C824.27 209.411 824.052 209.931 824.052 210.488V261.102C824.052 262.073 824.438 262.979 825.139 263.651C825.841 264.323 826.763 264.669 827.732 264.628L907.05 262.972C908.925 262.892 910.419 261.332 910.419 259.423V212.769C910.419 210.826 908.838 209.231 906.896 209.216L826.139 208.423C826.133 208.423 826.125 208.423 826.118 208.423Z" fill="#1CA3FF"/>
<path d="M871.666 242.822C869.649 242.822 867.626 242.209 865.869 240.969L827.92 214.172C827.285 213.725 827.134 212.847 827.582 212.212C828.029 211.579 828.907 211.427 829.542 211.874L867.491 238.672C870.272 240.634 873.975 240.414 876.501 238.133L905.474 211.98C906.05 211.458 906.94 211.506 907.459 212.081C907.979 212.657 907.935 213.546 907.358 214.066L878.386 240.221C876.472 241.945 874.074 242.822 871.666 242.822Z" fill="#1CA3FF"/>
<defs>
<linearGradient id="paint0_linear" x1="1325" y1="1174" x2="653.373" y2="194.544" gradientUnits="userSpaceOnUse">
<stop stop-color="#130FFF"/>
<stop offset="1" stop-color="#1CA3FF"/>
</linearGradient>
<linearGradient id="paint1_linear" x1="7.99055" y1="130.573" x2="968.374" y2="898.219" gradientUnits="userSpaceOnUse">
<stop stop-color="#130FFF"/>
<stop offset="1" stop-color="#1CA3FF"/>
</linearGradient>
<linearGradient id="paint2_linear" x1="88.1754" y1="137.22" x2="1072.88" y2="1162.19" gradientUnits="userSpaceOnUse">
<stop stop-color="#130FFF"/>
<stop offset="1" stop-color="#1CA3FF"/>
</linearGradient>
<linearGradient id="paint3_linear" x1="1041.8" y1="849.494" x2="1002.45" y2="798.218" gradientUnits="userSpaceOnUse">
<stop stop-color="#311944"/>
<stop offset="1" stop-color="#893976"/>
</linearGradient>
<linearGradient id="paint4_linear" x1="952.081" y1="734.951" x2="1002.64" y2="600.923" gradientUnits="userSpaceOnUse">
<stop stop-color="#311944"/>
<stop offset="1" stop-color="#893976"/>
</linearGradient>
<linearGradient id="paint5_linear" x1="923.807" y1="758.861" x2="923.035" y2="824.454" gradientUnits="userSpaceOnUse">
<stop stop-color="#311944"/>
<stop offset="1" stop-color="#893976"/>
</linearGradient>
<linearGradient id="paint6_linear" x1="672.546" y1="995.553" x2="728.501" y2="995.553" gradientUnits="userSpaceOnUse">
<stop stop-color="#311944"/>
<stop offset="1" stop-color="#6B3976"/>
</linearGradient>
<linearGradient id="paint7_linear" x1="698.931" y1="1017.6" x2="782.408" y2="767.169" gradientUnits="userSpaceOnUse">
<stop stop-color="#FFC444"/>
<stop offset="0.9964" stop-color="#F36F56"/>
</linearGradient>
<linearGradient id="paint8_linear" x1="769.186" y1="1030.75" x2="825.141" y2="1030.75" gradientUnits="userSpaceOnUse">
<stop stop-color="#311944"/>
<stop offset="1" stop-color="#6B3976"/>
</linearGradient>
<linearGradient id="paint9_linear" x1="795.569" y1="1052.8" x2="879.046" y2="802.367" gradientUnits="userSpaceOnUse">
<stop stop-color="#FFC444"/>
<stop offset="0.9964" stop-color="#F36F56"/>
</linearGradient>
<linearGradient id="paint10_linear" x1="786.749" y1="989.096" x2="846.009" y2="801.547" gradientUnits="userSpaceOnUse">
<stop stop-color="#444B8C"/>
<stop offset="0.9964" stop-color="#3E4177"/>
</linearGradient>
<linearGradient id="paint11_linear" x1="856.78" y1="343.691" x2="1271.65" y2="625.486" gradientUnits="userSpaceOnUse">
<stop stop-color="#311944"/>
<stop offset="1" stop-color="#6B3976"/>
</linearGradient>
<linearGradient id="paint12_linear" x1="793.39" y1="806.231" x2="936.982" y2="835.536" gradientUnits="userSpaceOnUse">
<stop stop-color="#444B8C"/>
<stop offset="0.9964" stop-color="#3E4177"/>
</linearGradient>
<linearGradient id="paint13_linear" x1="923.976" y1="570.062" x2="797.253" y2="405.878" gradientUnits="userSpaceOnUse">
<stop stop-color="#130FFF"/>
<stop offset="1" stop-color="#1CA3FF"/>
</linearGradient>
<linearGradient id="paint14_linear" x1="1027.28" y1="704.325" x2="795.514" y2="504.362" gradientUnits="userSpaceOnUse">
<stop stop-color="#130FFF"/>
<stop offset="1" stop-color="#1CA3FF"/>
</linearGradient>
<linearGradient id="paint15_linear" x1="957.777" y1="686.882" x2="928.408" y2="607.664" gradientUnits="userSpaceOnUse">
<stop stop-color="#130FFF"/>
<stop offset="1" stop-color="#1CA3FF"/>
</linearGradient>
<linearGradient id="paint16_linear" x1="1121.27" y1="575.762" x2="977.767" y2="410.487" gradientUnits="userSpaceOnUse">
<stop stop-color="#130FFF"/>
<stop offset="1" stop-color="#1CA3FF"/>
</linearGradient>
<linearGradient id="paint17_linear" x1="938.897" y1="523.049" x2="914.54" y2="412.507" gradientUnits="userSpaceOnUse">
<stop stop-color="#FFC444"/>
<stop offset="0.9964" stop-color="#F36F56"/>
</linearGradient>
<linearGradient id="paint18_linear" x1="922.386" y1="424.554" x2="950.3" y2="568.331" gradientUnits="userSpaceOnUse">
<stop stop-color="#FFC444"/>
<stop offset="0.9964" stop-color="#F36F56"/>
</linearGradient>
<linearGradient id="paint19_linear" x1="895.754" y1="423.509" x2="894.735" y2="505.599" gradientUnits="userSpaceOnUse">
<stop stop-color="#FFC444"/>
<stop offset="0.9964" stop-color="#F36F56"/>
</linearGradient>
<linearGradient id="paint20_linear" x1="953.032" y1="423.323" x2="951.98" y2="508.045" gradientUnits="userSpaceOnUse">
<stop stop-color="#FFC444"/>
<stop offset="0.9964" stop-color="#F36F56"/>
</linearGradient>
<linearGradient id="paint21_linear" x1="336.159" y1="476.883" x2="266.603" y2="373.406" gradientUnits="userSpaceOnUse">
<stop stop-color="#130FFF"/>
<stop offset="1" stop-color="#1CA3FF"/>
</linearGradient>
<linearGradient id="paint22_linear" x1="505.533" y1="252.121" x2="583.153" y2="364.789" gradientUnits="userSpaceOnUse">
<stop stop-color="#C7FFDA"/>
<stop offset="1" stop-color="#39FFE0"/>
</linearGradient>
<linearGradient id="paint23_linear" x1="174.338" y1="233.327" x2="258.709" y2="142.405" gradientUnits="userSpaceOnUse">
<stop stop-color="#53D8FF"/>
<stop offset="1" stop-color="#3840F7"/>
</linearGradient>
<linearGradient id="paint24_linear" x1="232.913" y1="202.182" x2="318.97" y2="53.0893" gradientUnits="userSpaceOnUse">
<stop stop-color="#53D8FF"/>
<stop offset="1" stop-color="#3840F7"/>
</linearGradient>
<linearGradient id="paint25_linear" x1="182.696" y1="231.28" x2="261.505" y2="146.353" gradientUnits="userSpaceOnUse">
<stop stop-color="#53D8FF"/>
<stop offset="1" stop-color="#3840F7"/>
</linearGradient>
<linearGradient id="paint26_linear" x1="227.33" y1="193.453" x2="276.48" y2="173.057" gradientUnits="userSpaceOnUse">
<stop stop-color="#53D8FF"/>
<stop offset="1" stop-color="#3840F7"/>
</linearGradient>
<linearGradient id="paint27_linear" x1="231.201" y1="614.308" x2="6.8191" y2="547.285" gradientUnits="userSpaceOnUse">
<stop stop-color="#130FFF"/>
<stop offset="1" stop-color="#1CA3FF"/>
</linearGradient>
<linearGradient id="paint28_linear" x1="231.201" y1="614.308" x2="6.8191" y2="547.285" gradientUnits="userSpaceOnUse">
<stop stop-color="#130FFF"/>
<stop offset="1" stop-color="#1CA3FF"/>
</linearGradient>
<linearGradient id="paint29_linear" x1="1217.63" y1="177.756" x2="1140.39" y2="100.471" gradientUnits="userSpaceOnUse">
<stop stop-color="#53D8FF"/>
<stop offset="1" stop-color="#3840F7"/>
</linearGradient>
<linearGradient id="paint30_linear" x1="1165.06" y1="152.25" x2="1084.43" y2="23.7998" gradientUnits="userSpaceOnUse">
<stop stop-color="#53D8FF"/>
<stop offset="1" stop-color="#3840F7"/>
</linearGradient>
<linearGradient id="paint31_linear" x1="1210.21" y1="176.235" x2="1138.06" y2="104.035" gradientUnits="userSpaceOnUse">
<stop stop-color="#53D8FF"/>
<stop offset="1" stop-color="#3840F7"/>
</linearGradient>
<linearGradient id="paint32_linear" x1="1169.68" y1="144.38" x2="1125.74" y2="128.026" gradientUnits="userSpaceOnUse">
<stop stop-color="#53D8FF"/>
<stop offset="1" stop-color="#3840F7"/>
</linearGradient>
<linearGradient id="paint33_linear" x1="1224" y1="393.815" x2="1097.1" y2="355.002" gradientUnits="userSpaceOnUse">
<stop stop-color="#130FFF"/>
<stop offset="1" stop-color="#1CA3FF"/>
</linearGradient>
</defs>
</svg>
