<svg width="48" height="37" viewBox="0 0 48 37" fill="none" xmlns="http://www.w3.org/2000/svg">
<path d="M21.1934 1.8776C21.5136 0.889241 22.1665 0.489068 22.561 0.490974H25.5953C26.017 0.490974 26.5214 1.13188 26.7094 1.62288C26.3308 1.71689 26.0018 2.00146 25.85 2.44736L16.467 33.5761V33.5799C16.3495 33.9413 16.2078 34.0811 16.0947 34.0957C15.8807 33.9674 15.5891 32.9809 15.4157 32.3915L13.4968 25.8115L21.1934 1.8776Z" fill="#28E9FF"/>
<path d="M14.0869 36.0823H12.1566C11.0056 36.0823 10.5439 35.7946 10.3254 34.9186L0.175661 1.39905C-0.00536839 0.732102 -0.0473014 0.325583 0.0536937 0.194734C0.10832 0.122322 0.32556 0.000366211 1.14686 0.000366211H3.00542C5.05581 0.000366211 5.3461 0.273498 5.6205 1.36729L10.9834 20.6002C10.9834 20.6027 10.9853 20.6046 10.9866 20.6065L14.5011 32.6593C14.8206 33.7404 15.0721 34.594 15.6057 34.9142C15.7321 34.991 15.8687 35.0285 16.0065 35.0457C15.6654 35.839 15.2068 36.0823 14.0869 36.0823Z" fill="#39FFE0"/>
<path d="M35.844 36.0826H33.9131C32.7215 36.0826 32.2756 35.8146 31.9395 34.9202L28.0306 21.9636L24.5142 10.1847L26.7583 2.73898C26.8085 2.58971 26.8974 2.53381 26.9418 2.53381C26.9781 2.53381 27.0346 2.59034 27.0721 2.71294L27.0746 2.71421L32.7424 20.5446C32.7513 20.57 32.7659 20.5897 32.778 20.6132L34.373 26.0828C34.3774 26.154 34.3965 26.22 34.4308 26.2816L36.2912 32.6596C36.6463 33.862 36.8889 34.4775 37.3139 34.7233C37.4543 34.8046 37.6054 34.8434 37.7604 34.8624L37.7325 34.9571C37.5521 35.6697 37.1868 36.0826 35.844 36.0826Z" fill="#1CA3FF"/>
<path d="M47.8281 1.38789L38.144 33.5844V33.585C38.076 33.8003 37.9903 33.8994 37.9357 33.9191C37.8887 33.9382 37.8226 33.9153 37.7985 33.9032C37.6047 33.747 37.3043 32.7256 37.2046 32.3915L35.3485 26.0307L37.0172 20.6005L42.3839 1.35486C42.6526 0.275034 42.9441 0 44.9951 0H46.8537C47.675 0 47.891 0.121956 47.9462 0.194368C48.0466 0.327122 48.0059 0.731737 47.8281 1.38789Z" fill="#1455FF"/>
</svg>
