<svg width="1334" height="1305" viewBox="0 0 1334 1305" fill="none" xmlns="http://www.w3.org/2000/svg">
<path opacity="0.03" d="M882 577.483C787.719 800.983 550 975.983 383.001 949.483C188.002 918.54 344.826 614.5 382.999 399.5C416.999 208 575.529 88.71 753.641 88.71C931.753 88.71 980.5 343.983 882 577.483Z" fill="url(#paint0_linear)"/>
<path opacity="0.03" d="M1063.75 812.257C936.222 1005.57 665.249 1091.26 554.747 1049.76C432.248 983.257 717.749 803.864 717.749 596.757C717.749 389.651 1092.88 289.258 1196.25 405.757C1290.75 512.257 1151.13 732.718 1063.75 812.257Z" fill="url(#paint1_linear)"/>
<path opacity="0.03" d="M530 532.5C530 717.792 380.012 975 232 975C83.9877 975 55 727.792 55 542.5C55 357.208 140.488 61.5 288.5 61.5C436.512 61.5 530 347.208 530 532.5Z" fill="url(#paint2_linear)"/>
<path d="M441.694 135.602C437.457 139.015 440.697 145.879 436.364 166.74C434.381 176.283 431.789 184.047 429.717 189.501C428.238 194.538 426.745 199.179 425.283 203.236C424.211 206.219 423.291 208.525 422.201 210.952C420.184 215.458 417.823 219.833 415.189 223.956C415.013 224.229 415.078 224.587 415.33 224.78C415.344 224.791 415.361 224.805 415.378 224.811C415.664 224.998 416.051 224.911 416.237 224.622C418.902 220.447 421.294 216.017 423.339 211.459C424.439 209.001 425.373 206.667 426.455 203.654C427.228 201.513 428.003 199.203 428.786 196.772C427.797 203.447 426.1 210.659 421.339 219.657C406.887 246.962 424.573 271.891 442.18 277.211C462.483 283.348 480.558 270.64 486.223 266.417C509.056 249.396 521.336 215.279 511.562 185.533C498.751 146.572 452.081 127.231 441.694 135.602Z" fill="url(#paint3_linear)"/>
<path d="M486.442 176.886C486.394 173.411 485.811 159.134 475.799 147.713C456.803 126.048 416.649 129.268 390.73 142.431C363.612 156.207 369.386 172.011 342.095 188.025C312.453 205.422 298.477 190.942 259.819 205.184C244.612 210.786 203.634 225.883 191.73 262.734C181.445 294.579 196.042 332.834 220.848 352.495C263.312 386.157 333.118 363.283 370.431 335.374C406.217 308.607 389.996 295.669 445.271 240.435C465.257 220.463 486.79 202.87 486.442 176.886Z" fill="url(#paint4_linear)"/>
<path d="M673.357 447.823L679.376 448.458C679.376 448.458 689.998 447.568 696.249 448.416C702.499 449.264 706.178 452.219 706.447 458.645C706.715 465.071 698.903 466.192 692.153 467.237C688.043 467.874 682.272 464.623 677.849 461.589C674.739 459.455 666.951 457.752 666.951 457.752L673.357 447.823Z" fill="url(#paint5_linear)"/>
<path d="M503.374 289.736C533.037 332.679 519.581 354.25 539.615 389.498C559.476 424.439 570.874 388.219 627.797 411.118C649.413 419.813 666.037 429.787 676.845 436.975C676.607 439.316 676.269 441.822 675.783 444.473C675.456 446.269 674.921 448.893 673.867 452.81C672.853 456.581 671.143 462.332 668.375 469.658C651.585 479.083 621.743 492.101 587.374 485.461C581.116 484.251 576.748 483.152 570.291 480.569C548.592 471.895 516.571 458.498 485.632 411.883C462.268 376.68 458.672 373.984 454.749 357.556C445.048 316.941 460.662 269.519 478.01 267.468C487.053 266.399 495.158 277.842 503.374 289.736Z" fill="url(#paint6_linear)"/>
<path d="M496.855 280.099C509.835 302.301 509.101 324.821 508.046 334.698C504.76 365.43 486.943 386.622 482.586 392.273C462.004 418.967 451.64 479.31 494.362 625.874C485.681 630.007 449.727 667.848 443.469 643.694C434.94 610.763 414.699 389.222 422.767 647.69C422.874 651.096 415.944 648.641 412.414 649.024C387.084 651.744 357.714 650.931 326.266 642.47C276.979 629.211 243.589 602.823 226.424 586.957C247.982 558.922 273.018 519.919 292.29 469.74C329.062 374.018 325.393 288.301 319.629 241.111C337.587 234.464 393.731 216.271 448.396 240.766C462.014 246.875 483.182 256.714 496.855 280.099Z" fill="url(#paint7_linear)"/>
<path d="M444.099 201.864C446.512 213.331 447.491 227.152 439.783 234.285C435.087 238.633 428.774 240.105 422.572 241.432C407.92 244.566 402.556 240.401 398.987 243.663C391.134 250.844 398.712 287.843 424.069 297.372C449.305 306.853 480.033 284.575 479.182 271.629C478.409 259.946 451.987 256.791 450.901 241.997C450.356 234.551 456.514 228.011 461.53 223.798L464.519 224.846L444.099 201.864Z" fill="url(#paint8_linear)"/>
<path d="M449.125 213.969C449.125 213.969 448.477 227.48 461.65 229.501C477.881 231.993 486.035 189.395 482.449 186.361C478.288 182.841 473.251 189.206 462.95 185.199C458.613 183.514 455.586 177.163 452.39 183.052C448.753 189.747 449.084 202.599 449.084 202.599C449.084 202.599 445.695 198.845 444.536 202.589C443.016 207.488 446.312 211.177 449.125 213.969Z" fill="url(#paint9_linear)"/>
<path d="M481.719 171.2C486.094 177.219 487.428 187.841 483.094 192.44C476.868 199.046 462.83 189.107 455.286 197.195C451.98 200.742 451.325 206.248 449.925 205.952C448.767 205.703 448.639 201.801 448.429 198.577C447.271 180.798 443.261 178.226 445.302 173.486C449.446 163.85 472.731 158.837 481.719 171.2Z" fill="url(#paint10_linear)"/>
<path d="M388.707 453.975L394.475 455.816C394.475 455.816 405.055 457.091 411.006 459.184C416.96 461.277 419.963 464.917 418.925 471.264C417.887 477.611 410.016 477.132 403.19 476.791C399.036 476.58 394.04 472.236 390.324 468.368C387.711 465.648 380.426 462.407 380.426 462.407L388.707 453.975Z" fill="url(#paint11_linear)"/>
<path d="M369.04 244.26C351.809 225.695 281.558 267.762 238.408 324.865C224.714 342.989 222.28 385.704 243.093 410.833C267.388 440.172 298.258 452.087 313.71 458.051C340.942 468.563 364.31 470.507 378.576 470.656C381.634 467.815 385.02 464.216 388.316 459.741C391.329 455.645 393.632 451.684 395.393 448.153C389.764 434.57 379.759 414.874 361.79 395.826C350.396 383.746 342.725 379.271 324.701 365.084C287.66 335.928 288.608 356.765 293.766 344.719C310.755 305.031 360.342 313.757 371.202 273.972C371.967 271.169 376.78 252.6 369.04 244.26Z" fill="url(#paint12_linear)"/>
<path d="M452.386 183.05C455.399 187.507 445.588 199.35 425.84 222.848C413.687 237.311 407.609 244.541 403.951 247.516C384.255 263.526 353.541 273.559 324.854 267.667C305.168 263.623 303.392 255.562 286.72 255.866C261.566 256.324 244.47 275.052 243.518 273.793C242.467 272.4 262.27 248.123 297.387 230.63C326.122 216.319 332.393 222.848 377.05 203.749C380.287 202.363 394.012 196.447 412.956 190.307C435.228 183.091 449.39 178.613 452.386 183.05Z" fill="url(#paint13_linear)"/>
<path d="M55 558.987V1182.06C55 1211.78 79.6467 1235.58 109.354 1234.55L1258 1194.54L1127.41 1102.56C1105.76 1087.31 1092.71 1062.63 1092.3 1036.15L1084.83 551.457C1084.45 526.497 1064.1 506.463 1039.14 506.463H107.524C78.5159 506.463 55 529.979 55 558.987Z" fill="#D0E0E7"/>
<path d="M65 548.987V1172.06C65 1201.78 89.6467 1225.58 119.354 1224.55L1268 1184.54L1137.41 1092.56C1115.76 1077.31 1102.71 1052.63 1102.3 1026.15L1094.83 541.457C1094.45 516.497 1074.1 496.463 1049.14 496.463H117.524C88.5159 496.463 65 519.979 65 548.987Z" fill="white"/>
<path d="M437 1089.88L398.075 1091L398 656.251L436.939 656L437 1089.88Z" fill="#D0E0E7"/>
<path d="M496 1087.92L457.055 1089L457 670.243L495.962 670L496 1087.92Z" fill="#D0E0E7"/>
<path d="M553.697 1086.22L514.791 1087.44L514.76 612.991L553.683 612.715L553.697 1086.22Z" fill="#D0E0E7"/>
<path d="M610.993 1084.83L573.01 1086L573 626.265L611 626L610.993 1084.83Z" fill="#D0E0E7"/>
<path d="M668.972 1082.88L630 1084L630.014 645.253L669 645L668.972 1082.88Z" fill="#D0E0E7"/>
<path d="M725.951 1080.82L687 1082L687.039 619.265L726 619L725.951 1080.82Z" fill="#D0E0E7"/>
<path d="M781.928 1078.91L744 1080L744.058 649.247L782 649L781.928 1078.91Z" fill="#D0E0E7"/>
<path d="M838.907 1077.88L801 1079L801.08 636.251L839 636L838.907 1077.88Z" fill="#D0E0E7"/>
<path d="M894.885 1075.93L857 1077L857.101 652.242L895 652L894.885 1075.93Z" fill="#D0E0E7"/>
<path d="M949.867 1073.86L913 1075L913.119 619.257L950 619L949.867 1073.86Z" fill="#D0E0E7"/>
<path d="M1005.84 1071.91L968 1073L968.144 636.247L1006 636L1005.84 1071.91Z" fill="#D0E0E7"/>
<path d="M437 1090.05L398.038 1091L398 898.57L436.966 898L437 1090.05Z" fill="#51FFC2"/>
<path d="M496 1088.22L457.041 1089L457 857.315L495.969 857L496 1088.22Z" fill="#51FFC2"/>
<path d="M554 1086.05L515.021 1087L515 836.447L553.99 836L554 1086.05Z" fill="#51FFC2"/>
<path d="M610.997 1085.15L573.007 1086L573 857.398L611 857L610.997 1085.15Z" fill="#51FFC2"/>
<path d="M668.979 1083.14L630 1084L630.01 823.35L669 823L668.979 1083.14Z" fill="#51FFC2"/>
<path d="M725.965 1080.97L687 1082L687.025 806.488L726 806L725.965 1080.97Z" fill="#51FFC2"/>
<path d="M781.948 1078.97L744 1080L744.041 780.44L782 780L781.948 1078.97Z" fill="#51FFC2"/>
<path d="M838.938 1077.78L801 1079L801.052 759.594L839 759L838.938 1077.78Z" fill="#51FFC2"/>
<path d="M894.92 1075.71L857 1077L857.07 729.609L895 729L894.92 1075.71Z" fill="#51FFC2"/>
<path d="M949.894 1073.73L913 1075L913.092 686.514L950 686L949.894 1073.73Z" fill="#51FFC2"/>
<path d="M1005.88 1071.61L968 1073L968.102 670.612L1006 670L1005.88 1071.61Z" fill="#51FFC2"/>
<path d="M289 589L291.5 589V586.5H289V589ZM289 1088H286.5V1090.57L289.075 1090.5L289 1088ZM284 589V586.5H281.5L281.5 589L284 589ZM284 1093H281.5V1095.5H284V1093ZM289 1093V1095.5H289.037L289.075 1095.5L289 1093ZM1057 1070L1057.07 1072.5L1059.57 1072.42L1059.5 1069.93L1057 1070ZM1056.85 1065L1059.35 1064.93L1059.27 1062.43L1056.78 1062.5L1056.85 1065ZM286.5 589L286.5 1088H291.5L291.5 589L286.5 589ZM284 591.5H289V586.5H284V591.5ZM286.5 1093L286.5 589L281.5 589L281.5 1093H286.5ZM289 1090.5H284V1095.5H289V1090.5ZM1056.93 1067.5L288.925 1090.5L289.075 1095.5L1057.07 1072.5L1056.93 1067.5ZM1054.35 1065.08L1054.5 1070.07L1059.5 1069.93L1059.35 1064.93L1054.35 1065.08ZM289.075 1090.5L1056.93 1067.5L1056.78 1062.5L288.925 1085.5L289.075 1090.5Z" fill="#D0E0E7"/>
<line x1="247" y1="639" x2="291" y2="639" stroke="#D0E0E7" stroke-width="10"/>
<line x1="247" y1="690" x2="291" y2="690" stroke="#D0E0E7" stroke-width="10"/>
<line x1="247" y1="741" x2="291" y2="741" stroke="#D0E0E7" stroke-width="10"/>
<line x1="247" y1="792" x2="291" y2="792" stroke="#D0E0E7" stroke-width="10"/>
<line x1="247" y1="843" x2="291" y2="843" stroke="#D0E0E7" stroke-width="10"/>
<line x1="247" y1="894" x2="291" y2="894" stroke="#D0E0E7" stroke-width="10"/>
<line x1="247" y1="945" x2="291" y2="945" stroke="#D0E0E7" stroke-width="10"/>
<line x1="247" y1="996" x2="291" y2="996" stroke="#D0E0E7" stroke-width="10"/>
<line x1="247" y1="1047" x2="291" y2="1047" stroke="#D0E0E7" stroke-width="10"/>
<circle cx="195.5" cy="639.5" r="12.5" fill="#D0E0E7"/>
<circle cx="195.5" cy="690.5" r="12.5" fill="#D0E0E7"/>
<circle cx="195.5" cy="741.5" r="12.5" fill="#D0E0E7"/>
<circle cx="195.5" cy="792.5" r="12.5" fill="#D0E0E7"/>
<circle cx="195.5" cy="843.5" r="12.5" fill="#D0E0E7"/>
<circle cx="195.5" cy="894.5" r="12.5" fill="#D0E0E7"/>
<circle cx="195.5" cy="945.5" r="12.5" fill="#D0E0E7"/>
<circle cx="195.5" cy="996.5" r="12.5" fill="#D0E0E7"/>
<circle cx="195.5" cy="1047.5" r="12.5" fill="#D0E0E7"/>
<path opacity="0.3" d="M251.498 496.343L703.098 496.343L527.588 554.486C527.588 554.486 345.98 626.537 283.674 554.486C266.699 534.857 251.498 496.343 251.498 496.343Z" fill="#D0E0E7"/>
<defs>
<linearGradient id="paint0_linear" x1="932.109" y1="952.142" x2="104.181" y2="333.763" gradientUnits="userSpaceOnUse">
<stop stop-color="#130FFF"/>
<stop offset="1" stop-color="#1CA3FF"/>
</linearGradient>
<linearGradient id="paint1_linear" x1="1227.8" y1="1060" x2="524.238" y2="356.401" gradientUnits="userSpaceOnUse">
<stop stop-color="#130FFF"/>
<stop offset="1" stop-color="#1CA3FF"/>
</linearGradient>
<linearGradient id="paint2_linear" x1="530" y1="975" x2="-217.809" y2="586.155" gradientUnits="userSpaceOnUse">
<stop stop-color="#130FFF"/>
<stop offset="1" stop-color="#1CA3FF"/>
</linearGradient>
<linearGradient id="paint3_linear" x1="72.9128" y1="224.075" x2="511.547" y2="203.433" gradientUnits="userSpaceOnUse">
<stop stop-color="#311944"/>
<stop offset="1" stop-color="#6B3976"/>
</linearGradient>
<linearGradient id="paint4_linear" x1="74.7799" y1="263.799" x2="513.415" y2="243.157" gradientUnits="userSpaceOnUse">
<stop stop-color="#311944"/>
<stop offset="1" stop-color="#6B3976"/>
</linearGradient>
<linearGradient id="paint5_linear" x1="706.357" y1="456.56" x2="640.667" y2="459.315" gradientUnits="userSpaceOnUse">
<stop stop-color="#FFC444"/>
<stop offset="0.9964" stop-color="#F36F56"/>
</linearGradient>
<linearGradient id="paint6_linear" x1="676.845" y1="487.277" x2="457.027" y2="262.261" gradientUnits="userSpaceOnUse">
<stop stop-color="#130FFF"/>
<stop offset="1" stop-color="#1CA3FF"/>
</linearGradient>
<linearGradient id="paint7_linear" x1="508.568" y1="651.695" x2="117.838" y2="391.283" gradientUnits="userSpaceOnUse">
<stop stop-color="#130FFF"/>
<stop offset="1" stop-color="#1CA3FF"/>
</linearGradient>
<linearGradient id="paint8_linear" x1="435.961" y1="280.923" x2="463.483" y2="-25.2637" gradientUnits="userSpaceOnUse">
<stop stop-color="#FFC444"/>
<stop offset="0.9964" stop-color="#F36F56"/>
</linearGradient>
<linearGradient id="paint9_linear" x1="465.027" y1="190.394" x2="441.791" y2="338.291" gradientUnits="userSpaceOnUse">
<stop stop-color="#FFC444"/>
<stop offset="0.9964" stop-color="#F36F56"/>
</linearGradient>
<linearGradient id="paint10_linear" x1="71.9309" y1="203.054" x2="510.55" y2="182.413" gradientUnits="userSpaceOnUse">
<stop stop-color="#311944"/>
<stop offset="1" stop-color="#6B3976"/>
</linearGradient>
<linearGradient id="paint11_linear" x1="419.262" y1="469.203" x2="354.373" y2="458.624" gradientUnits="userSpaceOnUse">
<stop stop-color="#FFC444"/>
<stop offset="0.9964" stop-color="#F36F56"/>
</linearGradient>
<linearGradient id="paint12_linear" x1="395.393" y1="470.656" x2="175.901" y2="311.296" gradientUnits="userSpaceOnUse">
<stop stop-color="#130FFF"/>
<stop offset="1" stop-color="#1CA3FF"/>
</linearGradient>
<linearGradient id="paint13_linear" x1="73.6853" y1="240.476" x2="512.319" y2="219.834" gradientUnits="userSpaceOnUse">
<stop stop-color="#311944"/>
<stop offset="1" stop-color="#6B3976"/>
</linearGradient>
</defs>
</svg>
